<?xml version="1.0" encoding="UTF-8"?>
<!DOCTYPE svg PUBLIC "-//W3C//DTD SVG 1.1//EN" "http://www.w3.org/Graphics/SVG/1.1/DTD/svg11.dtd">
<svg xmlns="http://www.w3.org/2000/svg" version="1.1" width="253px" height="253px" style="shape-rendering:geometricPrecision; text-rendering:geometricPrecision; image-rendering:optimizeQuality; fill-rule:evenodd; clip-rule:evenodd" xmlns:xlink="http://www.w3.org/1999/xlink">
<g><path style="opacity:0.667" fill="#b1bdbe" d="M 213.5,38.5 C 196.973,23.2353 177.64,13.2353 155.5,8.5C 112.914,-1.25146 74.9137,7.91521 41.5,36C 38.9061,38.0865 36.9061,40.5865 35.5,43.5C 31.8062,46.5271 28.4729,49.8604 25.5,53.5C 25.3505,52.448 25.5172,51.448 26,50.5C 65.9904,5.39976 114.824,-7.76691 172.5,11C 187.313,17.4921 200.813,25.9921 213,36.5C 213.464,37.0944 213.631,37.7611 213.5,38.5 Z M 129.5,34.5 C 127.335,34.8841 125.668,34.2174 124.5,32.5C 125.668,30.7826 127.335,30.1159 129.5,30.5C 129.5,31.8333 129.5,33.1667 129.5,34.5 Z M 117.5,34.5 C 113.986,36.3318 112.486,35.3318 113,31.5C 116.15,29.8388 117.65,30.8388 117.5,34.5 Z"/></g>
<g><path style="opacity:1" fill="#063640" d="M 155.5,8.5 C 153.129,10.3505 150.463,11.8505 147.5,13C 152.605,13.7011 157.272,15.2011 161.5,17.5C 161.262,13.9007 162.262,13.5673 164.5,16.5C 165.086,16.2907 165.586,15.9574 166,15.5C 166.309,16.7659 166.809,17.9326 167.5,19C 170.146,19.4974 172.813,19.6641 175.5,19.5C 175.853,21.6348 175.02,22.9681 173,23.5C 170.042,21.767 166.875,20.767 163.5,20.5C 163.5,21.5 163.5,22.5 163.5,23.5C 160.692,22.0712 157.692,21.4045 154.5,21.5C 152.585,21.7845 150.919,21.4511 149.5,20.5C 147.22,18.7773 144.553,18.1107 141.5,18.5C 130.654,18.1722 119.987,18.5056 109.5,19.5C 108.167,19.5 106.833,19.5 105.5,19.5C 95.0473,19.584 85.7139,22.584 77.5,28.5C 77.1667,29.1667 76.8333,29.8333 76.5,30.5C 73.0884,31.0749 70.0884,32.4082 67.5,34.5C 63.2451,35.4422 60.2451,37.7756 58.5,41.5C 57.5,41.8333 56.8333,42.5 56.5,43.5C 51.8955,45.1053 48.5622,48.1053 46.5,52.5C 44.4131,53.5846 43.0798,55.2512 42.5,57.5C 39.8851,58.4499 37.8851,60.1165 36.5,62.5C 35.7166,58.8542 35.5499,55.1875 36,51.5C 37.7658,49.404 39.0991,47.0707 40,44.5C 40.5613,43.9781 41.228,43.6448 42,43.5C 43.9896,44.8182 45.9896,46.1515 48,47.5C 48.1667,47.1667 48.3333,46.8333 48.5,46.5C 47.7227,42.7717 47.3893,39.105 47.5,35.5C 42.8554,36.352 40.1887,39.0187 39.5,43.5C 38.1667,43.5 36.8333,43.5 35.5,43.5C 36.9061,40.5865 38.9061,38.0865 41.5,36C 74.9137,7.91521 112.914,-1.25146 155.5,8.5 Z"/></g>
<g><path style="opacity:1" fill="#3fa04e" d="M 109.5,19.5 C 119.987,18.5056 130.654,18.1722 141.5,18.5C 142.833,19.1667 144.167,19.8333 145.5,20.5C 133.515,19.757 121.515,19.4237 109.5,19.5 Z"/></g>
<g><path style="opacity:1" fill="#044728" d="M 141.5,18.5 C 144.553,18.1107 147.22,18.7773 149.5,20.5C 148.167,20.5 146.833,20.5 145.5,20.5C 144.167,19.8333 142.833,19.1667 141.5,18.5 Z"/></g>
<g><path style="opacity:1" fill="#0b502d" d="M 154.5,21.5 C 157.692,21.4045 160.692,22.0712 163.5,23.5C 167.147,24.6566 170.48,26.3233 173.5,28.5C 171.435,28.4828 169.435,28.1495 167.5,27.5C 165.574,25.7073 163.241,24.7073 160.5,24.5C 158.5,23.5 156.5,22.5 154.5,21.5 Z"/></g>
<g><path style="opacity:1" fill="#5ff553" d="M 160.5,24.5 C 163.241,24.7073 165.574,25.7073 167.5,27.5C 169.396,29.0425 171.229,30.7092 173,32.5C 173.561,31.9781 174.228,31.6448 175,31.5C 176.8,32.3195 178.634,32.9862 180.5,33.5C 180.804,34.1499 181.137,34.8165 181.5,35.5C 185.372,37.2665 189.039,39.2665 192.5,41.5C 193.075,43.4113 194.075,45.078 195.5,46.5C 194.292,47.2341 192.959,47.5674 191.5,47.5C 191.785,45.712 191.452,44.0453 190.5,42.5C 188.38,43.8715 187.38,43.2048 187.5,40.5C 185.088,40.756 183.421,39.756 182.5,37.5C 181.119,39.6911 179.119,41.0244 176.5,41.5C 176.709,42.086 177.043,42.586 177.5,43C 175.616,43.2163 173.949,43.883 172.5,45C 174.698,45.3729 176.865,45.8729 179,46.5C 182.03,42.7092 184.863,43.0425 187.5,47.5C 186.609,48.5896 185.609,48.5896 184.5,47.5C 183.614,48.325 183.281,49.325 183.5,50.5C 182.733,49.828 182.066,48.9947 181.5,48C 160.803,47.2013 140.136,47.368 119.5,48.5C 118.752,46.4159 118.752,44.4159 119.5,42.5C 118.175,39.6708 116.175,39.0042 113.5,40.5C 114.95,41.8498 115.617,43.5165 115.5,45.5C 114.178,45.67 113.011,45.3366 112,44.5C 111.503,42.1902 111.337,39.8568 111.5,37.5C 113.262,37.3573 114.929,37.6906 116.5,38.5C 119.729,37.1255 120.896,34.7921 120,31.5C 119.583,30.244 118.75,29.5774 117.5,29.5C 117.762,28.0222 117.429,26.6888 116.5,25.5C 111.442,25.857 106.442,26.857 101.5,28.5C 101.64,26.8762 100.973,25.7096 99.5,25C 100.381,24.2917 101.047,23.4584 101.5,22.5C 102.167,22.5 102.5,22.1667 102.5,21.5C 122.026,19.7254 141.36,20.7254 160.5,24.5 Z M 129.5,34.5 C 129.5,33.1667 129.5,31.8333 129.5,30.5C 127.335,30.1159 125.668,30.7826 124.5,32.5C 125.668,34.2174 127.335,34.8841 129.5,34.5 Z"/></g>
<g><path style="opacity:1" fill="#5ad15c" d="M 105.5,19.5 C 106.833,19.5 108.167,19.5 109.5,19.5C 121.515,19.4237 133.515,19.757 145.5,20.5C 146.833,20.5 148.167,20.5 149.5,20.5C 150.919,21.4511 152.585,21.7845 154.5,21.5C 156.5,22.5 158.5,23.5 160.5,24.5C 141.36,20.7254 122.026,19.7254 102.5,21.5C 103.5,20.8333 104.5,20.1667 105.5,19.5 Z"/></g>
<g><path style="opacity:1" fill="#4cba58" d="M 102.5,21.5 C 102.5,22.1667 102.167,22.5 101.5,22.5C 98.5145,22.9028 95.8478,23.9028 93.5,25.5C 90.4021,25.7556 87.4021,26.4222 84.5,27.5C 89.8256,23.8553 95.8256,21.8553 102.5,21.5 Z"/></g>
<g><path style="opacity:1" fill="#06462d" d="M 105.5,19.5 C 104.5,20.1667 103.5,20.8333 102.5,21.5C 95.8256,21.8553 89.8256,23.8553 84.5,27.5C 82.139,27.6741 79.8056,28.0074 77.5,28.5C 85.7139,22.584 95.0473,19.584 105.5,19.5 Z"/></g>
<g><path style="opacity:1" fill="#69ee5e" d="M 101.5,22.5 C 101.047,23.4584 100.381,24.2917 99.5,25C 100.973,25.7096 101.64,26.8762 101.5,28.5C 106.442,26.857 111.442,25.857 116.5,25.5C 117.429,26.6888 117.762,28.0222 117.5,29.5C 118.75,29.5774 119.583,30.244 120,31.5C 120.896,34.7921 119.729,37.1255 116.5,38.5C 114.929,37.6906 113.262,37.3573 111.5,37.5C 110.759,34.5867 110.259,31.5867 110,28.5C 109.333,29.1667 108.667,29.8333 108,30.5C 107.744,33.557 107.244,36.557 106.5,39.5C 100.959,43.1937 94.9588,45.8604 88.5,47.5C 88.7093,48.086 89.0426,48.586 89.5,49C 84.9391,49.6315 80.6058,50.7982 76.5,52.5C 76.8333,51.8333 77.1667,51.1667 77.5,50.5C 79.153,50.3404 80.4863,49.6737 81.5,48.5C 88.7245,45.7131 95.7245,42.7131 102.5,39.5C 106.146,38.5385 107.313,36.2051 106,32.5C 105.044,31.1059 103.711,30.4393 102,30.5C 95.8725,32.1524 90.0392,34.4857 84.5,37.5C 84.5,36.5 84.5,35.5 84.5,34.5C 88.9159,33.21 93.2493,31.71 97.5,30C 96.8333,29.6667 96.1667,29.3333 95.5,29C 96.3366,27.9887 96.67,26.8221 96.5,25.5C 95.5,25.5 94.5,25.5 93.5,25.5C 95.8478,23.9028 98.5145,22.9028 101.5,22.5 Z M 117.5,34.5 C 117.65,30.8388 116.15,29.8388 113,31.5C 112.486,35.3318 113.986,36.3318 117.5,34.5 Z"/></g>
<g><path style="opacity:1" fill="#43b257" d="M 84.5,27.5 C 82.064,28.871 79.3973,29.871 76.5,30.5C 76.8333,29.8333 77.1667,29.1667 77.5,28.5C 79.8056,28.0074 82.139,27.6741 84.5,27.5 Z"/></g>
<g><path style="opacity:0.006" fill="#ecfbeb" d="M 129.5,34.5 C 126.739,37.3024 124.739,36.6358 123.5,32.5C 124.144,29.1359 126.144,27.9693 129.5,29C 130.807,30.9435 130.807,32.7768 129.5,34.5 Z M 129.5,34.5 C 129.5,33.1667 129.5,31.8333 129.5,30.5C 127.335,30.1159 125.668,30.7826 124.5,32.5C 125.668,34.2174 127.335,34.8841 129.5,34.5 Z"/></g>
<g><path style="opacity:1" fill="#063f35" d="M 173.5,28.5 C 180.124,28.3798 185.457,30.8798 189.5,36C 192.647,36.6488 194.647,38.4821 195.5,41.5C 193.754,39.7484 191.754,38.4151 189.5,37.5C 186.474,36.1179 183.474,34.7846 180.5,33.5C 178.343,31.5879 176.009,29.9213 173.5,28.5 Z"/></g>
<g><path style="opacity:1" fill="#45b555" d="M 76.5,30.5 C 73.5063,32.9998 70.173,34.9998 66.5,36.5C 66.8333,35.8333 67.1667,35.1667 67.5,34.5C 70.0884,32.4082 73.0884,31.0749 76.5,30.5 Z"/></g>
<g><path style="opacity:0.031" fill="#e6f8e4" d="M 117.5,29.5 C 118.72,31.2837 118.72,32.9504 117.5,34.5C 116.341,36.3769 114.674,36.8769 112.5,36C 109.999,30.0999 111.666,27.9332 117.5,29.5 Z M 117.5,34.5 C 117.65,30.8388 116.15,29.8388 113,31.5C 112.486,35.3318 113.986,36.3318 117.5,34.5 Z"/></g>
<g><path style="opacity:1" fill="#5ad861" d="M 167.5,27.5 C 169.435,28.1495 171.435,28.4828 173.5,28.5C 176.009,29.9213 178.343,31.5879 180.5,33.5C 178.634,32.9862 176.8,32.3195 175,31.5C 174.228,31.6448 173.561,31.9781 173,32.5C 171.229,30.7092 169.396,29.0425 167.5,27.5 Z"/></g>
<g><path style="opacity:0.059" fill="#e2f4e1" d="M 102.5,39.5 C 101.833,39.5 101.167,39.5 100.5,39.5C 102.903,38.9354 104.57,37.4354 105.5,35C 105.095,34.0546 104.428,33.3879 103.5,33C 89.1119,36.3601 76.1119,42.6934 64.5,52C 51.3477,63.5341 41.0143,77.0341 33.5,92.5C 40.7297,74.3622 52.0631,59.3622 67.5,47.5C 73.0021,43.9145 78.6688,40.5812 84.5,37.5C 90.0392,34.4857 95.8725,32.1524 102,30.5C 103.711,30.4393 105.044,31.1059 106,32.5C 107.313,36.2051 106.146,38.5385 102.5,39.5 Z"/></g>
<g><path style="opacity:1" fill="#56f154" d="M 93.5,25.5 C 94.5,25.5 95.5,25.5 96.5,25.5C 96.67,26.8221 96.3366,27.9887 95.5,29C 96.1667,29.3333 96.8333,29.6667 97.5,30C 93.2493,31.71 88.9159,33.21 84.5,34.5C 84.5,35.5 84.5,36.5 84.5,37.5C 78.6688,40.5812 73.0021,43.9145 67.5,47.5C 65.4816,48.6225 63.4816,48.6225 61.5,47.5C 60.707,48.3554 61.0403,49.1887 62.5,50C 61.2068,50.49 59.8734,50.6567 58.5,50.5C 58.5,51.8333 58.5,53.1667 58.5,54.5C 56.8008,54.3398 55.1341,54.5065 53.5,55C 54.9928,56.1562 54.8261,56.9896 53,57.5C 51.588,56.0773 50.4213,56.244 49.5,58C 50.5961,62.1912 49.4294,62.6912 46,59.5C 45.6155,57.8034 45.7822,56.1368 46.5,54.5C 46.5,53.8333 46.5,53.1667 46.5,52.5C 49.859,49.4715 53.1924,46.4715 56.5,43.5C 56.8333,42.5 57.5,41.8333 58.5,41.5C 60.8584,39.3218 63.5251,37.6551 66.5,36.5C 70.173,34.9998 73.5063,32.9998 76.5,30.5C 79.3973,29.871 82.064,28.871 84.5,27.5C 87.4021,26.4222 90.4021,25.7556 93.5,25.5 Z"/></g>
<g><path style="opacity:1" fill="#54cd61" d="M 180.5,33.5 C 183.474,34.7846 186.474,36.1179 189.5,37.5C 190.5,38.8333 191.5,40.1667 192.5,41.5C 189.039,39.2665 185.372,37.2665 181.5,35.5C 181.137,34.8165 180.804,34.1499 180.5,33.5 Z"/></g>
<g><path style="opacity:1" fill="#044924" d="M 67.5,34.5 C 67.1667,35.1667 66.8333,35.8333 66.5,36.5C 63.5251,37.6551 60.8584,39.3218 58.5,41.5C 60.2451,37.7756 63.2451,35.4422 67.5,34.5 Z"/></g>
<g><path style="opacity:1" fill="#075728" d="M 189.5,37.5 C 191.754,38.4151 193.754,39.7484 195.5,41.5C 196.167,42.5 196.833,43.5 197.5,44.5C 195.589,43.925 193.922,42.925 192.5,41.5C 191.5,40.1667 190.5,38.8333 189.5,37.5 Z"/></g>
<g><path style="opacity:0.753" fill="#b1c0c1" d="M 213.5,38.5 C 216.903,40.8998 219.57,43.8998 221.5,47.5C 218.097,45.1002 215.43,42.1002 213.5,38.5 Z"/></g>
<g><path style="opacity:0.773" fill="#c7ecc2" d="M 100.5,39.5 C 101.167,39.5 101.833,39.5 102.5,39.5C 95.7245,42.7131 88.7245,45.7131 81.5,48.5C 87.1382,44.1824 93.4715,41.1824 100.5,39.5 Z"/></g>
<g><path style="opacity:1" fill="#42d164" d="M 192.5,41.5 C 193.922,42.925 195.589,43.925 197.5,44.5C 198.833,46.1667 200.167,47.8333 201.5,49.5C 199.5,48.5 197.5,47.5 195.5,46.5C 194.075,45.078 193.075,43.4113 192.5,41.5 Z"/></g>
<g><path style="opacity:1" fill="#1f7f3b" d="M 56.5,43.5 C 53.1924,46.4715 49.859,49.4715 46.5,52.5C 48.5622,48.1053 51.8955,45.1053 56.5,43.5 Z"/></g>
<g><path style="opacity:1" fill="#053440" d="M 155.5,8.5 C 177.64,13.2353 196.973,23.2353 213.5,38.5C 215.43,42.1002 218.097,45.1002 221.5,47.5C 222.419,50.0892 224.086,52.0892 226.5,53.5C 226.738,55.4044 227.738,56.7377 229.5,57.5C 230.338,57.8417 230.672,58.5084 230.5,59.5C 230.5,60.1667 230.5,60.8333 230.5,61.5C 230.178,65.3504 231.511,68.517 234.5,71C 232.613,71.1626 231.113,70.3293 230,68.5C 230.019,70.1075 230.185,71.7741 230.5,73.5C 229.5,73.5 228.5,73.5 227.5,73.5C 228.034,81.0602 226.867,81.3936 224,74.5C 223.329,73.7476 222.496,73.4142 221.5,73.5C 220.833,73.1667 220.167,72.8333 219.5,72.5C 218.242,70.3131 217.242,67.9798 216.5,65.5C 214.96,61.1353 212.793,57.1353 210,53.5C 209.092,51.5614 207.592,50.5614 205.5,50.5C 205.5,49.5 205.5,48.5 205.5,47.5C 202.447,47.4279 199.781,46.4279 197.5,44.5C 196.833,43.5 196.167,42.5 195.5,41.5C 194.647,38.4821 192.647,36.6488 189.5,36C 185.457,30.8798 180.124,28.3798 173.5,28.5C 170.48,26.3233 167.147,24.6566 163.5,23.5C 163.5,22.5 163.5,21.5 163.5,20.5C 166.875,20.767 170.042,21.767 173,23.5C 175.02,22.9681 175.853,21.6348 175.5,19.5C 172.813,19.6641 170.146,19.4974 167.5,19C 166.809,17.9326 166.309,16.7659 166,15.5C 165.586,15.9574 165.086,16.2907 164.5,16.5C 162.262,13.5673 161.262,13.9007 161.5,17.5C 157.272,15.2011 152.605,13.7011 147.5,13C 150.463,11.8505 153.129,10.3505 155.5,8.5 Z"/></g>
<g><path style="opacity:1" fill="#62da6a" d="M 183.5,50.5 C 183.5,51.1667 183.5,51.8333 183.5,52.5C 182.163,51.6851 181.163,50.5185 180.5,49C 161.329,48.1711 142.329,48.3377 123.5,49.5C 121.784,49.6287 120.117,49.962 118.5,50.5C 118.833,49.8333 119.167,49.1667 119.5,48.5C 140.136,47.368 160.803,47.2013 181.5,48C 182.066,48.9947 182.733,49.828 183.5,50.5 Z"/></g>
<g><path style="opacity:1" fill="#207235" d="M 123.5,49.5 C 142.329,48.3377 161.329,48.1711 180.5,49C 181.163,50.5185 182.163,51.6851 183.5,52.5C 185.045,56.315 184.378,59.6483 181.5,62.5C 181.827,60.5122 182.16,58.5122 182.5,56.5C 182.66,54.6455 181.993,53.3121 180.5,52.5C 180.586,51.5041 180.252,50.6708 179.5,50C 160.836,49.5001 142.17,49.3334 123.5,49.5 Z"/></g>
<g><path style="opacity:0.494" fill="#dff1d9" d="M 81.5,48.5 C 80.4863,49.6737 79.153,50.3404 77.5,50.5C 78.287,48.8958 79.6203,48.2291 81.5,48.5 Z"/></g>
<g><path style="opacity:1" fill="#04452a" d="M 123.5,49.5 C 142.17,49.3334 160.836,49.5001 179.5,50C 180.252,50.6708 180.586,51.5041 180.5,52.5C 178.586,51.8153 176.586,51.3153 174.5,51C 156.833,50.3333 139.167,50.3333 121.5,51C 117.873,51.6284 116.04,53.7951 116,57.5C 114.366,59.8369 112.533,61.8369 110.5,63.5C 111.5,60.8333 112.5,58.1667 113.5,55.5C 114.939,53.6397 116.605,51.973 118.5,50.5C 120.117,49.962 121.784,49.6287 123.5,49.5 Z"/></g>
<g><path style="opacity:1" fill="#073541" d="M 180.5,52.5 C 181.993,53.3121 182.66,54.6455 182.5,56.5C 182.16,58.5122 181.827,60.5122 181.5,62.5C 181.5,62.8333 181.5,63.1667 181.5,63.5C 176.831,68.8291 173.164,74.8291 170.5,81.5C 169.504,81.4142 168.671,81.7476 168,82.5C 166.882,84.7654 166.049,87.0987 165.5,89.5C 164.559,91.0495 163.893,92.7162 163.5,94.5C 161.167,97.8333 158.833,101.167 156.5,104.5C 154.924,106.572 153.091,108.572 151,110.5C 150.289,112.367 150.789,113.867 152.5,115C 163.079,115.403 173.413,116.237 183.5,117.5C 184.5,117.833 185.167,118.5 185.5,119.5C 185.799,121.604 185.466,123.604 184.5,125.5C 183.572,123.665 182.406,123.332 181,124.5C 180.82,126.488 180.986,128.488 181.5,130.5C 180.167,130.5 178.833,130.5 177.5,130.5C 177.5,131.5 177.5,132.5 177.5,133.5C 176.167,133.5 174.833,133.5 173.5,133.5C 173.56,129.515 171.56,127.848 167.5,128.5C 167.167,125.5 168.5,124.167 171.5,124.5C 171.5,123.5 171.5,122.5 171.5,121.5C 168.755,121.373 166.755,122.54 165.5,125C 162.167,125.667 158.833,125.667 155.5,125C 159.378,123.428 159.378,121.928 155.5,120.5C 154.571,121.689 154.238,123.022 154.5,124.5C 149.833,124.5 145.167,124.5 140.5,124.5C 140.538,121.193 139.872,118.026 138.5,115C 142.782,110.922 146.949,106.755 151,102.5C 151.667,101.5 151.667,100.5 151,99.5C 149.667,100.833 148.333,102.167 147,103.5C 146.833,103.167 146.667,102.833 146.5,102.5C 148.086,100.827 148.753,98.8273 148.5,96.5C 148.5,95.8333 148.5,95.1667 148.5,94.5C 149.708,93.7659 151.041,93.4326 152.5,93.5C 152.448,91.0971 152.781,88.7638 153.5,86.5C 154.167,84.8333 154.833,83.1667 155.5,81.5C 159.414,76.0091 163.08,70.3424 166.5,64.5C 167.404,63.791 167.737,62.791 167.5,61.5C 161.833,61.5 156.167,61.5 150.5,61.5C 142.16,61.3336 133.827,61.5003 125.5,62C 124.748,62.6708 124.414,63.5041 124.5,64.5C 122,67.4937 120,70.827 118.5,74.5C 116.076,77.0078 114.41,80.0078 113.5,83.5C 113.672,84.4916 113.338,85.1583 112.5,85.5C 110.75,86.6594 109.75,88.326 109.5,90.5C 106.812,92.7968 105.146,95.7968 104.5,99.5C 104.167,99.5 103.833,99.5 103.5,99.5C 103.665,96.1501 103.498,92.8168 103,89.5C 102.586,89.0426 102.086,88.7093 101.5,88.5C 100.618,89.7598 99.6184,90.9264 98.5,92C 99.7596,93.8138 99.7596,95.6471 98.5,97.5C 97.6858,95.2338 97.1858,92.9005 97,90.5C 96.6174,91.056 96.1174,91.3893 95.5,91.5C 95.5,90.8333 95.5,90.1667 95.5,89.5C 97.1101,85.8996 99.1101,82.5662 101.5,79.5C 104.421,76.758 106.421,73.4247 107.5,69.5C 107.992,67.1815 108.992,65.1815 110.5,63.5C 112.533,61.8369 114.366,59.8369 116,57.5C 116.04,53.7951 117.873,51.6284 121.5,51C 139.167,50.3333 156.833,50.3333 174.5,51C 176.586,51.3153 178.586,51.8153 180.5,52.5 Z"/></g>
<g><path style="opacity:0.365" fill="#c2cece" d="M 221.5,47.5 C 223.914,48.9108 225.581,50.9108 226.5,53.5C 224.086,52.0892 222.419,50.0892 221.5,47.5 Z"/></g>
<g><path style="opacity:1" fill="#024433" d="M 197.5,44.5 C 199.781,46.4279 202.447,47.4279 205.5,47.5C 205.5,48.5 205.5,49.5 205.5,50.5C 207.592,50.5614 209.092,51.5614 210,53.5C 212.793,57.1353 214.96,61.1353 216.5,65.5C 213.833,62.5 211.167,59.5 208.5,56.5C 207.243,53.5726 205.243,51.2393 202.5,49.5C 202.167,49.5 201.833,49.5 201.5,49.5C 200.167,47.8333 198.833,46.1667 197.5,44.5 Z"/></g>
<g><path style="opacity:0.616" fill="#b1bec0" d="M 25.5,53.5 C 25.2624,55.4044 24.2624,56.7377 22.5,57.5C 22.7376,55.5956 23.7376,54.2623 25.5,53.5 Z"/></g>
<g><path style="opacity:1" fill="#3ca54d" d="M 46.5,52.5 C 46.5,53.1667 46.5,53.8333 46.5,54.5C 45.1667,55.5 43.8333,56.5 42.5,57.5C 43.0798,55.2512 44.4131,53.5846 46.5,52.5 Z"/></g>
<g><path style="opacity:0.482" fill="#cfdad9" d="M 226.5,53.5 C 228.262,54.2623 229.262,55.5956 229.5,57.5C 227.738,56.7377 226.738,55.4044 226.5,53.5 Z"/></g>
<g><path style="opacity:0.404" fill="#ccd8d8" d="M 22.5,57.5 C 22.573,59.0269 21.9063,60.0269 20.5,60.5C 20.427,58.9731 21.0937,57.9731 22.5,57.5 Z"/></g>
<g><path style="opacity:1" fill="#116534" d="M 42.5,57.5 C 39.5136,61.817 36.1803,65.817 32.5,69.5C 32.9613,66.6967 34.2947,64.3634 36.5,62.5C 37.8851,60.1165 39.8851,58.4499 42.5,57.5 Z"/></g>
<g><path style="opacity:1" fill="#55ea5a" d="M 67.5,47.5 C 52.0631,59.3622 40.7297,74.3622 33.5,92.5C 32.5489,93.9187 32.2155,95.5853 32.5,97.5C 31.2353,96.4855 30.5687,94.9855 30.5,93C 30.3403,90.5303 31.0069,88.3636 32.5,86.5C 33.086,86.7093 33.586,87.0426 34,87.5C 34.6514,85.765 34.4847,84.0983 33.5,82.5C 34.2739,81.2888 35.1072,81.2888 36,82.5C 36.2734,80.8988 36.7734,79.3988 37.5,78C 35.9837,76.103 35.317,73.9363 35.5,71.5C 34.5,71.5 33.5,71.5 32.5,71.5C 28.8339,79.5436 25.1672,87.5436 21.5,95.5C 21.5172,93.4352 21.8505,91.4352 22.5,89.5C 25.2014,83.0942 28.2014,76.7609 31.5,70.5C 32.1667,70.5 32.5,70.1667 32.5,69.5C 36.1803,65.817 39.5136,61.817 42.5,57.5C 43.8333,56.5 45.1667,55.5 46.5,54.5C 45.7822,56.1368 45.6155,57.8034 46,59.5C 49.4294,62.6912 50.5961,62.1912 49.5,58C 50.4213,56.244 51.588,56.0773 53,57.5C 54.8261,56.9896 54.9928,56.1562 53.5,55C 55.1341,54.5065 56.8008,54.3398 58.5,54.5C 58.5,53.1667 58.5,51.8333 58.5,50.5C 59.8734,50.6567 61.2068,50.49 62.5,50C 61.0403,49.1887 60.707,48.3554 61.5,47.5C 63.4816,48.6225 65.4816,48.6225 67.5,47.5 Z"/></g>
<g><path style="opacity:1" fill="#61662a" d="M 150.5,62.5 C 150.5,62.1667 150.5,61.8333 150.5,61.5C 156.167,61.5 161.833,61.5 167.5,61.5C 167.737,62.791 167.404,63.791 166.5,64.5C 166.672,63.5084 166.338,62.8417 165.5,62.5C 160.5,62.5 155.5,62.5 150.5,62.5 Z"/></g>
<g><path style="opacity:0.447" fill="#c3cfce" d="M 230.5,59.5 C 231.906,59.9731 232.573,60.9731 232.5,62.5C 231.833,62.1667 231.167,61.8333 230.5,61.5C 230.5,60.8333 230.5,60.1667 230.5,59.5 Z"/></g>
<g><path style="opacity:0.333" fill="#d7dfdf" d="M 20.5,60.5 C 20.573,62.0269 19.9063,63.0269 18.5,63.5C 18.427,61.9731 19.0937,60.9731 20.5,60.5 Z"/></g>
<g><path style="opacity:1" fill="#56f64f" d="M 111.5,37.5 C 111.337,39.8568 111.503,42.1902 112,44.5C 113.011,45.3366 114.178,45.67 115.5,45.5C 115.617,43.5165 114.95,41.8498 113.5,40.5C 116.175,39.0042 118.175,39.6708 119.5,42.5C 118.752,44.4159 118.752,46.4159 119.5,48.5C 119.167,49.1667 118.833,49.8333 118.5,50.5C 116.605,51.973 114.939,53.6397 113.5,55.5C 112.504,55.4142 111.671,55.7476 111,56.5C 109.212,60.0546 107.712,63.7213 106.5,67.5C 105.675,68.3857 104.675,68.719 103.5,68.5C 103.657,67.1266 103.49,65.7932 103,64.5C 103.095,67.6437 102.928,70.6437 102.5,73.5C 100.408,73.4386 98.9078,72.4386 98,70.5C 97.3333,72.1667 97.3333,73.8333 98,75.5C 98.6543,74.3044 99.1543,74.3044 99.5,75.5C 98.9851,77.2251 98.3184,78.8917 97.5,80.5C 96.6043,79.4937 95.9377,79.4937 95.5,80.5C 96.2458,81.7362 96.5792,83.0695 96.5,84.5C 95.5,84.5 94.5,84.5 93.5,84.5C 93.5,86.5 93.5,88.5 93.5,90.5C 92.1667,90.5 90.8333,90.5 89.5,90.5C 89.8893,93.5533 89.2227,96.22 87.5,98.5C 85.5779,95.2368 83.2445,92.2368 80.5,89.5C 78.936,92.1355 77.6026,91.9689 76.5,89C 77.297,85.2546 77.797,81.4213 78,77.5C 79.1882,78.5634 79.6882,79.8967 79.5,81.5C 80.8333,81.5 82.1667,81.5 83.5,81.5C 83.3416,78.6391 84.0083,75.9724 85.5,73.5C 85.1822,72.3527 84.5156,71.5194 83.5,71C 84.8333,70.3333 86.1667,69.6667 87.5,69C 86.2298,68.1004 85.2298,66.9337 84.5,65.5C 81.8955,65.5896 79.2288,64.923 76.5,63.5C 74.6042,67.4112 71.6042,69.7446 67.5,70.5C 67.5997,67.8915 66.9331,65.5582 65.5,63.5C 66.925,62.078 67.925,60.4113 68.5,58.5C 70.8599,56.1468 73.5265,54.1468 76.5,52.5C 80.6058,50.7982 84.9391,49.6315 89.5,49C 89.0426,48.586 88.7093,48.086 88.5,47.5C 94.9588,45.8604 100.959,43.1937 106.5,39.5C 107.244,36.557 107.744,33.557 108,30.5C 108.667,29.8333 109.333,29.1667 110,28.5C 110.259,31.5867 110.759,34.5867 111.5,37.5 Z"/></g>
<g><path style="opacity:0.146" fill="#c9cfd1" d="M 150.5,61.5 C 150.5,61.8333 150.5,62.1667 150.5,62.5C 149.508,62.3284 148.842,62.6618 148.5,63.5C 140.414,63.1995 132.414,63.5328 124.5,64.5C 124.414,63.5041 124.748,62.6708 125.5,62C 133.827,61.5003 142.16,61.3336 150.5,61.5 Z"/></g>
<g><path style="opacity:0.153" fill="#dbe4e3" d="M 232.5,62.5 C 234.104,63.287 234.771,64.6203 234.5,66.5C 233.326,65.4863 232.66,64.153 232.5,62.5 Z"/></g>
<g><path style="opacity:0.463" fill="#dff7df" d="M 77.5,50.5 C 77.1667,51.1667 76.8333,51.8333 76.5,52.5C 73.5265,54.1468 70.8599,56.1468 68.5,58.5C 60.3931,65.2683 53.3931,72.9349 47.5,81.5C 49.1396,77.5591 51.3063,73.8924 54,70.5C 60.8443,62.4747 68.6776,55.8081 77.5,50.5 Z"/></g>
<g><path style="opacity:0.286" fill="#d6dfe0" d="M 17.5,65.5 C 17.573,67.0269 16.9063,68.0269 15.5,68.5C 15.427,66.9731 16.0937,65.9731 17.5,65.5 Z"/></g>
<g><path style="opacity:0.031" fill="#e0e7e8" d="M 124.5,64.5 C 123.502,68.5055 121.502,71.8388 118.5,74.5C 120,70.827 122,67.4937 124.5,64.5 Z"/></g>
<g><path style="opacity:0.352" fill="#e7e3cd" d="M 150.5,62.5 C 149.649,64.8816 148.316,66.8816 146.5,68.5C 140.491,68.3338 134.491,68.5005 128.5,69C 127.956,69.7172 127.289,70.2172 126.5,70.5C 126.414,69.5041 126.748,68.6708 127.5,68C 133.833,67.6667 140.167,67.3333 146.5,67C 147.305,65.8873 147.972,64.7206 148.5,63.5C 148.842,62.6618 149.508,62.3284 150.5,62.5 Z"/></g>
<g><path style="opacity:0.827" fill="#fae790" d="M 146.5,68.5 C 141.015,69.3272 135.348,69.8272 129.5,70C 126.977,71.3597 124.977,73.193 123.5,75.5C 123.75,73.326 124.75,71.6594 126.5,70.5C 127.289,70.2172 127.956,69.7172 128.5,69C 134.491,68.5005 140.491,68.3338 146.5,68.5 Z"/></g>
<g><path style="opacity:1" fill="#12a96c" d="M 181.5,63.5 C 181.5,64.8333 181.5,66.1667 181.5,67.5C 175.754,75.763 170.588,84.4296 166,93.5C 165.329,94.2524 164.496,94.5858 163.5,94.5C 163.893,92.7162 164.559,91.0495 165.5,89.5C 167.653,87.2063 169.32,84.5396 170.5,81.5C 173.164,74.8291 176.831,68.8291 181.5,63.5 Z"/></g>
<g><path style="opacity:0.267" fill="#d3dddd" d="M 235.5,68.5 C 237.873,70.5792 239.206,73.2459 239.5,76.5C 239.167,76.5 238.833,76.5 238.5,76.5C 237.5,73.8333 236.5,71.1667 235.5,68.5 Z"/></g>
<g><path style="opacity:1" fill="#57ed60" d="M 68.5,58.5 C 67.925,60.4113 66.925,62.078 65.5,63.5C 63.2034,65.2941 61.0367,67.2941 59,69.5C 58.9967,73.5666 58.8301,77.5666 58.5,81.5C 56.9749,76.0659 54.4749,75.3992 51,79.5C 50.3744,81.7135 50.5411,83.8801 51.5,86C 50.6831,87.49 49.8498,88.99 49,90.5C 48.0853,89.6721 47.4186,88.6721 47,87.5C 46.5831,88.756 45.7498,89.4226 44.5,89.5C 44.8333,88.1667 45.1667,86.8333 45.5,85.5C 45.6596,83.847 46.3263,82.5137 47.5,81.5C 53.3931,72.9349 60.3931,65.2683 68.5,58.5 Z"/></g>
<g><path style="opacity:1" fill="#0d3844" d="M 230.5,61.5 C 231.167,61.8333 231.833,62.1667 232.5,62.5C 232.66,64.153 233.326,65.4863 234.5,66.5C 235.338,66.8417 235.672,67.5084 235.5,68.5C 236.5,71.1667 237.5,73.8333 238.5,76.5C 238.468,78.6188 239.468,79.9522 241.5,80.5C 242.404,81.209 242.737,82.209 242.5,83.5C 242.402,85.5529 243.069,87.2196 244.5,88.5C 249.909,102.626 251.909,117.292 250.5,132.5C 249.383,137.973 248.717,143.64 248.5,149.5C 247.232,151.905 246.565,154.572 246.5,157.5C 245.076,159.515 244.41,161.848 244.5,164.5C 234.647,191.545 217.647,212.878 193.5,228.5C 194.184,226.551 195.351,224.885 197,223.5C 197.749,222.365 197.583,221.365 196.5,220.5C 194.046,223.281 191.046,225.281 187.5,226.5C 186.419,223.123 184.086,221.456 180.5,221.5C 183.248,219.399 186.248,217.566 189.5,216C 190.784,215.316 191.951,215.483 193,216.5C 194.117,215.051 194.784,213.384 195,211.5C 198.387,208.409 201.553,205.076 204.5,201.5C 206.583,200.971 208.417,199.971 210,198.5C 215.726,192.06 220.726,185.06 225,177.5C 226.421,172.077 228.755,167.077 232,162.5C 232.116,157.733 233.283,153.4 235.5,149.5C 236.571,136.18 236.738,122.847 236,109.5C 234.108,100.21 231.275,91.2104 227.5,82.5C 227.043,81.7025 226.376,81.3691 225.5,81.5C 224.167,78.8333 222.833,76.1667 221.5,73.5C 222.496,73.4142 223.329,73.7476 224,74.5C 226.867,81.3936 228.034,81.0602 227.5,73.5C 228.5,73.5 229.5,73.5 230.5,73.5C 230.185,71.7741 230.019,70.1075 230,68.5C 231.113,70.3293 232.613,71.1626 234.5,71C 231.511,68.517 230.178,65.3504 230.5,61.5 Z"/></g>
<g><path style="opacity:1" fill="#5ced58" d="M 113.5,55.5 C 112.5,58.1667 111.5,60.8333 110.5,63.5C 108.992,65.1815 107.992,67.1815 107.5,69.5C 104.579,72.242 102.579,75.5753 101.5,79.5C 99.1101,82.5662 97.1101,85.8996 95.5,89.5C 94.8333,89.8333 94.1667,90.1667 93.5,90.5C 93.5,88.5 93.5,86.5 93.5,84.5C 94.5,84.5 95.5,84.5 96.5,84.5C 96.5792,83.0695 96.2458,81.7362 95.5,80.5C 95.9377,79.4937 96.6043,79.4937 97.5,80.5C 98.3184,78.8917 98.9851,77.2251 99.5,75.5C 99.1543,74.3044 98.6543,74.3044 98,75.5C 97.3333,73.8333 97.3333,72.1667 98,70.5C 98.9078,72.4386 100.408,73.4386 102.5,73.5C 102.928,70.6437 103.095,67.6437 103,64.5C 103.49,65.7932 103.657,67.1266 103.5,68.5C 104.675,68.719 105.675,68.3857 106.5,67.5C 107.712,63.7213 109.212,60.0546 111,56.5C 111.671,55.7476 112.504,55.4142 113.5,55.5 Z"/></g>
<g><path style="opacity:1" fill="#d47b39" d="M 165.5,62.5 C 166.338,62.8417 166.672,63.5084 166.5,64.5C 163.08,70.3424 159.414,76.0091 155.5,81.5C 156.105,78.8733 156.605,76.2066 157,73.5C 159.133,72.7449 160.8,71.4116 162,69.5C 162.74,68.2506 162.573,67.2506 161.5,66.5C 162.5,65.8333 163.5,65.1667 164.5,64.5C 164.833,63.8333 165.167,63.1667 165.5,62.5 Z"/></g>
<g><path style="opacity:1" fill="#1fc860" d="M 181.5,67.5 C 181.662,69.5273 181.495,71.5273 181,73.5C 173.58,86.0044 166.414,98.6711 159.5,111.5C 166.134,112.497 172.8,112.83 179.5,112.5C 181.933,112.273 183.599,113.273 184.5,115.5C 184.167,115.5 183.833,115.5 183.5,115.5C 182.833,115.167 182.167,114.833 181.5,114.5C 173.432,113.82 165.265,113.153 157,112.5C 156.333,111.5 156.333,110.5 157,109.5C 161.377,105.561 163.543,100.561 163.5,94.5C 164.496,94.5858 165.329,94.2524 166,93.5C 170.588,84.4296 175.754,75.763 181.5,67.5 Z"/></g>
<g><path style="opacity:1" fill="#09562c" d="M 107.5,69.5 C 106.421,73.4247 104.421,76.758 101.5,79.5C 102.579,75.5753 104.579,72.242 107.5,69.5 Z"/></g>
<g><path style="opacity:1" fill="#149965" d="M 219.5,72.5 C 220.167,72.8333 220.833,73.1667 221.5,73.5C 222.833,76.1667 224.167,78.8333 225.5,81.5C 226.939,83.588 227.606,85.9214 227.5,88.5C 224.31,83.4532 221.643,78.1199 219.5,72.5 Z"/></g>
<g><path style="opacity:0.992" fill="#637b7d" d="M 238.5,76.5 C 238.833,76.5 239.167,76.5 239.5,76.5C 240.674,77.5137 241.34,78.847 241.5,80.5C 239.468,79.9522 238.468,78.6188 238.5,76.5 Z"/></g>
<g><path style="opacity:1" fill="#054138" d="M 31.5,70.5 C 28.2014,76.7609 25.2014,83.0942 22.5,89.5C 22.1046,85.815 21.9379,82.1483 22,78.5C 25.2911,75.9186 28.4578,73.252 31.5,70.5 Z"/></g>
<g><path style="opacity:1" fill="#09e25a" d="M 195.5,46.5 C 197.5,47.5 199.5,48.5 201.5,49.5C 201.833,49.5 202.167,49.5 202.5,49.5C 203.737,52.277 205.237,54.9437 207,57.5C 206.43,59.6928 206.764,61.6928 208,63.5C 208.667,62.1667 209.333,62.1667 210,63.5C 210.054,66.8612 211.054,69.8612 213,72.5C 212.583,78.3204 214.083,83.4871 217.5,88C 217.355,89.2259 217.022,90.3926 216.5,91.5C 220.322,99.7767 222.155,108.443 222,117.5C 221.667,116.5 221.333,115.5 221,114.5C 219.842,119.004 218.176,123.338 216,127.5C 213.975,128.452 211.475,129.286 208.5,130C 207.751,131.734 207.251,133.567 207,135.5C 204.677,131.578 204.177,131.912 205.5,136.5C 204.603,136.669 203.603,137.002 202.5,137.5C 201.652,139.409 201.318,141.409 201.5,143.5C 198.101,143.737 196.268,145.404 196,148.5C 197,147.833 198,147.167 199,146.5C 200.61,148.939 201.444,151.606 201.5,154.5C 200.178,154.67 199.011,154.337 198,153.5C 197.692,154.308 197.192,154.975 196.5,155.5C 194.922,154.36 193.256,153.86 191.5,154C 192.061,155.566 191.394,156.899 189.5,158C 191.973,159.742 191.973,161.575 189.5,163.5C 190.762,165.82 190.095,167.654 187.5,169C 186.365,169.749 185.365,169.583 184.5,168.5C 185.506,167.604 185.506,166.938 184.5,166.5C 182.465,167.041 180.465,167.708 178.5,168.5C 179.737,169.281 180.737,170.281 181.5,171.5C 178.376,173.14 175.542,175.14 173,177.5C 171.951,176.483 170.784,176.316 169.5,177C 165.593,179.76 161.593,182.26 157.5,184.5C 156.998,185.716 156.665,186.883 156.5,188C 146.427,192.265 136.094,195.099 125.5,196.5C 125.5,195.5 125.5,194.5 125.5,193.5C 128.215,190.118 131.215,187.118 134.5,184.5C 132.23,188.108 129.563,191.442 126.5,194.5C 136.849,194.815 145.849,191.315 153.5,184C 155.392,183.027 157.392,182.36 159.5,182C 194.859,155.07 209.859,119.237 204.5,74.5C 202.07,64.9752 199.07,55.6418 195.5,46.5 Z"/></g>
<g><path style="opacity:0.294" fill="#fcf5d9" d="M 123.5,75.5 C 122.921,78.3311 121.588,80.6644 119.5,82.5C 120.079,79.6689 121.412,77.3356 123.5,75.5 Z"/></g>
<g><path style="opacity:1" fill="#f58c1f" d="M 164.5,64.5 C 163.5,65.1667 162.5,65.8333 161.5,66.5C 158.637,67.7952 155.97,69.4618 153.5,71.5C 152.833,74.5 152.167,77.5 151.5,80.5C 148.876,81.7953 146.543,83.462 144.5,85.5C 147.608,78.7905 151.608,72.6238 156.5,67C 158.927,65.4086 161.593,64.5752 164.5,64.5 Z"/></g>
<g><path style="opacity:0.157" fill="#dde5e7" d="M 118.5,74.5 C 117.59,77.9922 115.924,80.9922 113.5,83.5C 114.41,80.0078 116.076,77.0078 118.5,74.5 Z"/></g>
<g><path style="opacity:1" fill="#f37926" d="M 161.5,66.5 C 162.573,67.2506 162.74,68.2506 162,69.5C 160.8,71.4116 159.133,72.7449 157,73.5C 156.605,76.2066 156.105,78.8733 155.5,81.5C 154.833,83.1667 154.167,84.8333 153.5,86.5C 151.838,89.1202 150.172,91.7868 148.5,94.5C 146.755,96.0326 145.755,98.0326 145.5,100.5C 144.396,102.389 143.063,104.055 141.5,105.5C 143.742,101.448 145.409,97.1145 146.5,92.5C 150.179,90.4874 150.346,88.154 147,85.5C 143.89,88.1552 141.89,91.4885 141,95.5C 140.241,97.0629 139.074,98.0629 137.5,98.5C 139.089,93.6486 141.422,89.3153 144.5,85.5C 146.543,83.462 148.876,81.7953 151.5,80.5C 152.167,77.5 152.833,74.5 153.5,71.5C 155.97,69.4618 158.637,67.7952 161.5,66.5 Z"/></g>
<g><path style="opacity:1" fill="#48f555" d="M 195.5,46.5 C 199.07,55.6418 202.07,64.9752 204.5,74.5C 204.666,84.5056 204.5,94.5056 204,104.5C 202.798,107.774 201.798,111.107 201,114.5C 199.984,113.366 199.317,113.699 199,115.5C 198.333,114.167 197.667,112.833 197,111.5C 196.548,114.149 195.714,116.649 194.5,119C 195.184,120.693 196.184,122.193 197.5,123.5C 195.263,127.88 193.763,132.546 193,137.5C 192.266,133.035 192.766,128.701 194.5,124.5C 190.534,120.031 186.867,115.364 183.5,110.5C 184.545,108.795 185.878,107.295 187.5,106C 186.584,105.626 185.75,105.126 185,104.5C 183.301,105.406 181.467,105.739 179.5,105.5C 180.833,107.833 180.833,110.167 179.5,112.5C 172.8,112.83 166.134,112.497 159.5,111.5C 166.414,98.6711 173.58,86.0044 181,73.5C 181.495,71.5273 181.662,69.5273 181.5,67.5C 181.5,66.1667 181.5,64.8333 181.5,63.5C 181.5,63.1667 181.5,62.8333 181.5,62.5C 184.378,59.6483 185.045,56.315 183.5,52.5C 183.5,51.8333 183.5,51.1667 183.5,50.5C 183.281,49.325 183.614,48.325 184.5,47.5C 185.609,48.5896 186.609,48.5896 187.5,47.5C 184.863,43.0425 182.03,42.7092 179,46.5C 176.865,45.8729 174.698,45.3729 172.5,45C 173.949,43.883 175.616,43.2163 177.5,43C 177.043,42.586 176.709,42.086 176.5,41.5C 179.119,41.0244 181.119,39.6911 182.5,37.5C 183.421,39.756 185.088,40.756 187.5,40.5C 187.38,43.2048 188.38,43.8715 190.5,42.5C 191.452,44.0453 191.785,45.712 191.5,47.5C 192.959,47.5674 194.292,47.2341 195.5,46.5 Z"/></g>
<g><path style="opacity:1" fill="#48f451" d="M 65.5,63.5 C 66.9331,65.5582 67.5997,67.8915 67.5,70.5C 71.6042,69.7446 74.6042,67.4112 76.5,63.5C 79.2288,64.923 81.8955,65.5896 84.5,65.5C 85.2298,66.9337 86.2298,68.1004 87.5,69C 86.1667,69.6667 84.8333,70.3333 83.5,71C 84.5156,71.5194 85.1822,72.3527 85.5,73.5C 84.0083,75.9724 83.3416,78.6391 83.5,81.5C 82.1667,81.5 80.8333,81.5 79.5,81.5C 79.6882,79.8967 79.1882,78.5634 78,77.5C 77.797,81.4213 77.297,85.2546 76.5,89C 77.6026,91.9689 78.936,92.1355 80.5,89.5C 83.2445,92.2368 85.5779,95.2368 87.5,98.5C 86.7211,100.927 85.5545,100.927 84,98.5C 83.8253,101.157 83.9919,103.824 84.5,106.5C 83.5,106.5 82.5,106.5 81.5,106.5C 81.5,107.5 81.5,108.5 81.5,109.5C 80.448,109.351 79.448,109.517 78.5,110C 79.7468,111.458 79.7468,112.958 78.5,114.5C 76.711,116.033 74.711,117.033 72.5,117.5C 73.0916,120.127 73.4249,122.794 73.5,125.5C 73.5,126.167 73.5,126.833 73.5,127.5C 72.8333,127.5 72.5,127.833 72.5,128.5C 69.812,128.834 67.4786,128.168 65.5,126.5C 64.8592,125.518 64.1925,124.518 63.5,123.5C 64.8713,119.628 67.2047,116.461 70.5,114C 70.1667,113.667 69.8333,113.333 69.5,113C 64.3046,111.239 59.638,108.739 55.5,105.5C 52.5,106 49.5,106.5 46.5,107C 45.3223,111.573 44.3223,111.406 43.5,106.5C 43.559,104.233 44.3923,103.567 46,104.5C 46.6987,102.926 46.3654,101.593 45,100.5C 43.8904,102.037 42.3904,102.703 40.5,102.5C 40.5,101.5 40.5,100.5 40.5,99.5C 41.1098,98.609 41.4431,97.609 41.5,96.5C 41.5,95.1667 41.5,93.8333 41.5,92.5C 43.1436,92.1898 44.1436,91.1898 44.5,89.5C 45.7498,89.4226 46.5831,88.756 47,87.5C 47.4186,88.6721 48.0853,89.6721 49,90.5C 49.8498,88.99 50.6831,87.49 51.5,86C 50.5411,83.8801 50.3744,81.7135 51,79.5C 54.4749,75.3992 56.9749,76.0659 58.5,81.5C 58.8301,77.5666 58.9967,73.5666 59,69.5C 61.0367,67.2941 63.2034,65.2941 65.5,63.5 Z"/></g>
<g><path style="opacity:0.278" fill="#faf6dc" d="M 118.5,84.5 C 118.25,86.674 117.25,88.3406 115.5,89.5C 115.75,87.326 116.75,85.6594 118.5,84.5 Z"/></g>
<g><path style="opacity:1" fill="#015137" d="M 170.5,81.5 C 169.32,84.5396 167.653,87.2063 165.5,89.5C 166.049,87.0987 166.882,84.7654 168,82.5C 168.671,81.7476 169.504,81.4142 170.5,81.5 Z"/></g>
<g><path style="opacity:0.129" fill="#e4ebeb" d="M 242.5,83.5 C 243.931,84.7804 244.598,86.4471 244.5,88.5C 243.069,87.2196 242.402,85.5529 242.5,83.5 Z"/></g>
<g><path style="opacity:0.216" fill="#dbe3e5" d="M 112.5,85.5 C 112.25,87.674 111.25,89.3406 109.5,90.5C 109.75,88.326 110.75,86.6594 112.5,85.5 Z"/></g>
<g><path style="opacity:0.961" fill="#8c9ba0" d="M 7.5,86.5 C 7.87988,88.698 7.21321,90.3646 5.5,91.5C 5.40206,89.4471 6.06873,87.7804 7.5,86.5 Z"/></g>
<g><path style="opacity:0.953" fill="#b3f0b3" d="M 45.5,85.5 C 45.1667,86.8333 44.8333,88.1667 44.5,89.5C 44.1436,91.1898 43.1436,92.1898 41.5,92.5C 42.0787,89.6689 43.412,87.3356 45.5,85.5 Z"/></g>
<g><path style="opacity:1" fill="#147134" d="M 95.5,89.5 C 95.5,90.1667 95.5,90.8333 95.5,91.5C 94.5275,93.1392 93.1942,94.4726 91.5,95.5C 92.1667,93.8333 92.8333,92.1667 93.5,90.5C 94.1667,90.1667 94.8333,89.8333 95.5,89.5 Z"/></g>
<g><path style="opacity:0.329" fill="#fdf8e0" d="M 115.5,89.5 C 115.573,91.0269 114.906,92.0269 113.5,92.5C 113.427,90.9731 114.094,89.9731 115.5,89.5 Z"/></g>
<g><path style="opacity:1" fill="#95a7ab" d="M 109.5,90.5 C 108.59,93.9922 106.924,96.9922 104.5,99.5C 105.146,95.7968 106.812,92.7968 109.5,90.5 Z"/></g>
<g><path style="opacity:1" fill="#3e3b27" d="M 153.5,86.5 C 152.781,88.7638 152.448,91.0971 152.5,93.5C 151.041,93.4326 149.708,93.7659 148.5,94.5C 150.172,91.7868 151.838,89.1202 153.5,86.5 Z"/></g>
<g><path style="opacity:1" fill="#0b3844" d="M 36.5,62.5 C 34.2947,64.3634 32.9613,66.6967 32.5,69.5C 32.5,70.1667 32.1667,70.5 31.5,70.5C 28.4578,73.252 25.2911,75.9186 22,78.5C 21.9379,82.1483 22.1046,85.815 22.5,89.5C 21.2101,90.0577 20.3768,91.0577 20,92.5C 19.5065,90.8659 19.3398,89.1992 19.5,87.5C 18.5,87.5 17.5,87.5 16.5,87.5C 16.9076,90.5304 17.5743,93.5304 18.5,96.5C 17.5319,100.997 16.1986,105.33 14.5,109.5C 13.8335,114.681 13.1668,120.015 12.5,125.5C 11.7379,124.372 11.0712,123.205 10.5,122C 9.55085,121.383 8.71752,121.549 8,122.5C 7.81038,128.416 7.31038,134.249 6.5,140C 7.25244,140.671 7.58577,141.504 7.5,142.5C 5.91373,140.919 4.91373,138.919 4.5,136.5C 4.83466,130.472 5.16799,124.306 5.5,118C 3.81219,115.175 2.97886,112.009 3,108.5C 2.72158,109.416 2.22158,110.082 1.5,110.5C 1.23219,108.901 1.56552,107.568 2.5,106.5C 3.91301,103.781 4.57968,100.781 4.5,97.5C 4.20528,95.2646 4.53862,93.2646 5.5,91.5C 7.21321,90.3646 7.87988,88.698 7.5,86.5C 9.10062,79.9705 11.7673,73.9705 15.5,68.5C 16.9063,68.0269 17.573,67.0269 17.5,65.5C 17.3284,64.5084 17.6618,63.8417 18.5,63.5C 19.9063,63.0269 20.573,62.0269 20.5,60.5C 21.9063,60.0269 22.573,59.0269 22.5,57.5C 24.2624,56.7377 25.2624,55.4044 25.5,53.5C 28.4729,49.8604 31.8062,46.5271 35.5,43.5C 36.8333,43.5 38.1667,43.5 39.5,43.5C 40.1887,39.0187 42.8554,36.352 47.5,35.5C 47.3893,39.105 47.7227,42.7717 48.5,46.5C 48.3333,46.8333 48.1667,47.1667 48,47.5C 45.9896,46.1515 43.9896,44.8182 42,43.5C 41.228,43.6448 40.5613,43.9781 40,44.5C 39.0991,47.0707 37.7658,49.404 36,51.5C 35.5499,55.1875 35.7166,58.8542 36.5,62.5 Z"/></g>
<g><path style="opacity:1" fill="#fdd325" d="M 150.5,62.5 C 155.5,62.5 160.5,62.5 165.5,62.5C 165.167,63.1667 164.833,63.8333 164.5,64.5C 161.593,64.5752 158.927,65.4086 156.5,67C 151.608,72.6238 147.608,78.7905 144.5,85.5C 141.422,89.3153 139.089,93.6486 137.5,98.5C 136.624,98.3691 135.957,98.7025 135.5,99.5C 132.488,104.861 129.488,110.194 126.5,115.5C 124.336,115.721 122.67,116.721 121.5,118.5C 118.293,117.551 117.626,115.551 119.5,112.5C 119.182,111.353 118.516,110.519 117.5,110C 113.372,107.544 110.539,108.377 109,112.5C 108.667,112.167 108.333,111.833 108,111.5C 106.929,114.113 106.095,114.113 105.5,111.5C 106.968,110.221 107.635,108.554 107.5,106.5C 108.455,104.254 109.122,101.921 109.5,99.5C 111.588,97.6644 112.921,95.3311 113.5,92.5C 114.906,92.0269 115.573,91.0269 115.5,89.5C 117.25,88.3406 118.25,86.674 118.5,84.5C 118.328,83.5084 118.662,82.8417 119.5,82.5C 121.588,80.6644 122.921,78.3311 123.5,75.5C 124.977,73.193 126.977,71.3597 129.5,70C 135.348,69.8272 141.015,69.3272 146.5,68.5C 148.316,66.8816 149.649,64.8816 150.5,62.5 Z"/></g>
<g><path style="opacity:0.275" fill="#fdf8df" d="M 113.5,92.5 C 112.921,95.3311 111.588,97.6644 109.5,99.5C 110.079,96.6689 111.412,94.3356 113.5,92.5 Z"/></g>
<g><path style="opacity:0.047" fill="#d8f5da" d="M 33.5,92.5 C 32.8416,96.6772 34.5082,98.1772 38.5,97C 39.3994,95.3484 40.3994,93.8484 41.5,92.5C 41.5,93.8333 41.5,95.1667 41.5,96.5C 38.7858,99.9339 35.7858,100.267 32.5,97.5C 32.2155,95.5853 32.5489,93.9187 33.5,92.5 Z"/></g>
<g><path style="opacity:1" fill="#02bb64" d="M 208.5,56.5 C 211.167,59.5 213.833,62.5 216.5,65.5C 217.242,67.9798 218.242,70.3131 219.5,72.5C 221.643,78.1199 224.31,83.4532 227.5,88.5C 227.685,92.066 227.019,95.3993 225.5,98.5C 225.714,102.144 226.881,102.477 229,99.5C 230.865,103.687 232.198,108.021 233,112.5C 233.821,124.916 233.155,137.249 231,149.5C 230,150.833 229,150.833 228,149.5C 227.567,151.664 228.067,153.664 229.5,155.5C 228.418,160.175 226.585,164.508 224,168.5C 223.333,167.167 222.667,165.833 222,164.5C 221.747,167.2 221.747,169.867 222,172.5C 221.077,173.759 220.243,175.092 219.5,176.5C 217.865,175.67 216.198,175.503 214.5,176C 215.337,174.989 215.67,173.822 215.5,172.5C 220.17,171.487 221.337,168.82 219,164.5C 216.064,167.63 214.064,171.297 213,175.5C 211.89,177.037 210.39,177.703 208.5,177.5C 207.703,183.053 204.703,186.887 199.5,189C 195.484,194.07 190.984,198.57 186,202.5C 185.508,203.549 185.674,204.549 186.5,205.5C 183.721,206.646 181.054,207.979 178.5,209.5C 177.232,208.572 175.899,208.405 174.5,209C 162.617,216.458 149.617,219.958 135.5,219.5C 145.249,216.585 155.249,213.918 165.5,211.5C 170.158,209.608 174.492,207.275 178.5,204.5C 179.386,203.675 179.719,202.675 179.5,201.5C 182.893,201.938 185.893,201.105 188.5,199C 189.38,197.644 189.714,196.144 189.5,194.5C 193.694,191.86 197.694,188.86 201.5,185.5C 203.785,184.043 205.618,182.043 207,179.5C 210,174.167 213,168.833 216,163.5C 216.356,159.646 217.856,156.313 220.5,153.5C 221.484,150.572 221.817,147.572 221.5,144.5C 224.792,129.953 225.292,115.287 223,100.5C 220.627,89.6757 217.961,79.009 215,68.5C 213.003,65.8882 211.003,63.2215 209,60.5C 208.51,59.2068 208.343,57.8734 208.5,56.5 Z"/></g>
<g><path style="opacity:1" fill="#70492b" d="M 148.5,94.5 C 148.5,95.1667 148.5,95.8333 148.5,96.5C 147.857,98.0764 146.857,99.4097 145.5,100.5C 145.755,98.0326 146.755,96.0326 148.5,94.5 Z"/></g>
<g><path style="opacity:0.922" fill="#93a3a7" d="M 4.5,97.5 C 4.57968,100.781 3.91301,103.781 2.5,106.5C 2.42032,103.219 3.08699,100.219 4.5,97.5 Z"/></g>
<g><path style="opacity:1" fill="#074f2b" d="M 91.5,96.5 C 90.4154,101.68 88.0821,106.013 84.5,109.5C 86.2757,104.815 88.6091,100.482 91.5,96.5 Z"/></g>
<g><path style="opacity:0.016" fill="#e7ecee" d="M 103.5,99.5 C 103.833,99.5 104.167,99.5 104.5,99.5C 104.25,101.674 103.25,103.341 101.5,104.5C 101.893,102.716 102.559,101.05 103.5,99.5 Z"/></g>
<g><path style="opacity:0.231" fill="#fcf7e0" d="M 109.5,99.5 C 109.122,101.921 108.455,104.254 107.5,106.5C 106.167,107.833 104.833,109.167 103.5,110.5C 105.25,106.665 107.25,102.999 109.5,99.5 Z"/></g>
<g><path style="opacity:1" fill="#18a96a" d="M 163.5,94.5 C 163.543,100.561 161.377,105.561 157,109.5C 156.333,110.5 156.333,111.5 157,112.5C 165.265,113.153 173.432,113.82 181.5,114.5C 172.161,114.666 162.827,114.5 153.5,114C 153.043,113.586 152.709,113.086 152.5,112.5C 154.372,110.09 155.705,107.423 156.5,104.5C 158.833,101.167 161.167,97.8333 163.5,94.5 Z"/></g>
<g><path style="opacity:1" fill="#3bd55e" d="M 21.5,95.5 C 20.6843,102.211 19.6843,108.877 18.5,115.5C 18.1667,115.5 17.8333,115.5 17.5,115.5C 17.5,113.5 17.5,111.5 17.5,109.5C 17.9229,104.46 19.2562,99.7932 21.5,95.5 Z"/></g>
<g><path style="opacity:1" fill="#60e66e" d="M 28.5,105.5 C 35.3296,104 38.3296,106.667 37.5,113.5C 36.8333,113.5 36.1667,113.5 35.5,113.5C 27.7543,116.079 25.4209,113.413 28.5,105.5 Z M 35.5,111.5 C 33.1331,113.072 31.1331,112.739 29.5,110.5C 30.6927,108.616 32.3594,108.116 34.5,109C 35.2524,109.671 35.5858,110.504 35.5,111.5 Z"/></g>
<g><path style="opacity:0.008" fill="#e4f8e5" d="M 35.5,111.5 C 35.5,112.167 35.5,112.833 35.5,113.5C 29.6409,114.926 27.6409,112.926 29.5,107.5C 31.9492,106.09 34.1159,106.424 36,108.5C 36.7401,109.749 36.5735,110.749 35.5,111.5 Z M 35.5,111.5 C 35.5858,110.504 35.2524,109.671 34.5,109C 32.3594,108.116 30.6927,108.616 29.5,110.5C 31.1331,112.739 33.1331,113.072 35.5,111.5 Z"/></g>
<g><path style="opacity:0.224" fill="#d5dde0" d="M 101.5,104.5 C 100.502,108.505 98.5023,111.839 95.5,114.5C 97.0002,110.827 99.0002,107.494 101.5,104.5 Z"/></g>
<g><path style="opacity:1" fill="#fdc719" d="M 121.5,118.5 C 121.005,120.482 120.505,122.482 120,124.5C 115.846,121.588 114.346,122.922 115.5,128.5C 109.5,128.5 103.5,128.5 97.5,128.5C 98.6484,125.265 99.815,121.932 101,118.5C 103.644,120.31 106.144,122.31 108.5,124.5C 109.287,123.758 109.953,122.925 110.5,122C 108.959,119.96 107.626,117.793 106.5,115.5C 105.914,115.709 105.414,116.043 105,116.5C 104.22,114.613 104.387,112.946 105.5,111.5C 106.095,114.113 106.929,114.113 108,111.5C 108.333,111.833 108.667,112.167 109,112.5C 110.539,108.377 113.372,107.544 117.5,110C 118.516,110.519 119.182,111.353 119.5,112.5C 117.626,115.551 118.293,117.551 121.5,118.5 Z"/></g>
<g><path style="opacity:1" fill="#034133" d="M 22.5,89.5 C 21.8505,91.4352 21.5172,93.4352 21.5,95.5C 19.2562,99.7932 17.9229,104.46 17.5,109.5C 15.9779,114.748 15.3112,120.248 15.5,126C 15.5012,130.015 15.8345,133.849 16.5,137.5C 17.4614,139.265 17.7947,141.265 17.5,143.5C 17.2594,145.898 17.9261,147.898 19.5,149.5C 19.3379,151.527 19.5045,153.527 20,155.5C 21.6636,158.327 22.8303,161.327 23.5,164.5C 21.7775,162.747 20.2775,160.747 19,158.5C 17.352,153.242 16.0187,147.908 15,142.5C 14.5002,131.505 14.3335,120.505 14.5,109.5C 16.1986,105.33 17.5319,100.997 18.5,96.5C 17.5743,93.5304 16.9076,90.5304 16.5,87.5C 17.5,87.5 18.5,87.5 19.5,87.5C 19.3398,89.1992 19.5065,90.8659 20,92.5C 20.3768,91.0577 21.2101,90.0577 22.5,89.5 Z"/></g>
<g><path style="opacity:0.369" fill="#faf3d8" d="M 103.5,110.5 C 103.573,112.027 102.906,113.027 101.5,113.5C 101.427,111.973 102.094,110.973 103.5,110.5 Z"/></g>
<g><path style="opacity:1" fill="#034538" d="M 156.5,104.5 C 155.705,107.423 154.372,110.09 152.5,112.5C 152.709,113.086 153.043,113.586 153.5,114C 162.827,114.5 172.161,114.666 181.5,114.5C 182.167,114.833 182.833,115.167 183.5,115.5C 183.5,116.167 183.5,116.833 183.5,117.5C 173.413,116.237 163.079,115.403 152.5,115C 150.789,113.867 150.289,112.367 151,110.5C 153.091,108.572 154.924,106.572 156.5,104.5 Z"/></g>
<g><path style="opacity:1" fill="#02dc5f" d="M 202.5,49.5 C 205.243,51.2393 207.243,53.5726 208.5,56.5C 208.343,57.8734 208.51,59.2068 209,60.5C 211.003,63.2215 213.003,65.8882 215,68.5C 217.961,79.009 220.627,89.6757 223,100.5C 225.292,115.287 224.792,129.953 221.5,144.5C 217.516,147.814 215.682,152.147 216,157.5C 214.579,160.009 212.912,162.343 211,164.5C 210.784,162.616 210.117,160.949 209,159.5C 208.29,160.973 207.124,161.64 205.5,161.5C 205.66,163.199 205.494,164.866 205,166.5C 203.203,167.927 202.036,169.76 201.5,172C 203.358,173.258 204.692,174.925 205.5,177C 205.473,179.363 204.306,180.863 202,181.5C 201.51,182.793 201.343,184.127 201.5,185.5C 197.694,188.86 193.694,191.86 189.5,194.5C 188.5,194.5 187.5,194.5 186.5,194.5C 186.343,193.127 186.51,191.793 187,190.5C 191.933,190.068 194.099,187.402 193.5,182.5C 200.077,180.424 200.743,177.424 195.5,173.5C 193.8,177.227 191.8,180.894 189.5,184.5C 185.865,185.606 182.198,186.606 178.5,187.5C 176.988,189.934 174.988,190.601 172.5,189.5C 169.397,190.763 166.397,192.263 163.5,194C 160.294,194.296 157.128,194.796 154,195.5C 153.228,195.355 152.561,195.022 152,194.5C 151.56,196.076 150.727,197.41 149.5,198.5C 150.5,199.333 151.5,200.167 152.5,201C 148.706,201.606 145.373,203.106 142.5,205.5C 141.719,204.271 141.219,202.938 141,201.5C 139.853,202.458 138.853,202.125 138,200.5C 134.01,200.996 131.01,202.996 129,206.5C 128.439,205.978 127.772,205.645 127,205.5C 121.727,206.939 118.227,210.273 116.5,215.5C 110.501,216.643 104.501,216.643 98.5,215.5C 98.5,215.167 98.5,214.833 98.5,214.5C 95.1926,213.398 92.1926,211.565 89.5,209C 90.5634,207.812 91.8967,207.312 93.5,207.5C 95.9237,208.03 98.257,208.864 100.5,210C 103.5,210.667 106.5,210.667 109.5,210C 112.953,206.882 115.787,203.382 118,199.5C 120.086,196.906 122.586,194.906 125.5,193.5C 125.5,194.5 125.5,195.5 125.5,196.5C 136.094,195.099 146.427,192.265 156.5,188C 156.665,186.883 156.998,185.716 157.5,184.5C 161.593,182.26 165.593,179.76 169.5,177C 170.784,176.316 171.951,176.483 173,177.5C 175.542,175.14 178.376,173.14 181.5,171.5C 180.737,170.281 179.737,169.281 178.5,168.5C 180.465,167.708 182.465,167.041 184.5,166.5C 185.506,166.938 185.506,167.604 184.5,168.5C 185.365,169.583 186.365,169.749 187.5,169C 190.095,167.654 190.762,165.82 189.5,163.5C 191.973,161.575 191.973,159.742 189.5,158C 191.394,156.899 192.061,155.566 191.5,154C 193.256,153.86 194.922,154.36 196.5,155.5C 197.192,154.975 197.692,154.308 198,153.5C 199.011,154.337 200.178,154.67 201.5,154.5C 201.444,151.606 200.61,148.939 199,146.5C 198,147.167 197,147.833 196,148.5C 196.268,145.404 198.101,143.737 201.5,143.5C 201.318,141.409 201.652,139.409 202.5,137.5C 203.603,137.002 204.603,136.669 205.5,136.5C 204.177,131.912 204.677,131.578 207,135.5C 207.251,133.567 207.751,131.734 208.5,130C 211.475,129.286 213.975,128.452 216,127.5C 218.176,123.338 219.842,119.004 221,114.5C 221.333,115.5 221.667,116.5 222,117.5C 222.155,108.443 220.322,99.7767 216.5,91.5C 217.022,90.3926 217.355,89.2259 217.5,88C 214.083,83.4871 212.583,78.3204 213,72.5C 211.054,69.8612 210.054,66.8612 210,63.5C 209.333,62.1667 208.667,62.1667 208,63.5C 206.764,61.6928 206.43,59.6928 207,57.5C 205.237,54.9437 203.737,52.277 202.5,49.5 Z"/></g>
<g><path style="opacity:1" fill="#3df250" d="M 40.5,99.5 C 40.5,100.5 40.5,101.5 40.5,102.5C 42.3904,102.703 43.8904,102.037 45,100.5C 46.3654,101.593 46.6987,102.926 46,104.5C 44.3923,103.567 43.559,104.233 43.5,106.5C 44.3223,111.406 45.3223,111.573 46.5,107C 49.5,106.5 52.5,106 55.5,105.5C 59.638,108.739 64.3046,111.239 69.5,113C 69.8333,113.333 70.1667,113.667 70.5,114C 67.2047,116.461 64.8713,119.628 63.5,123.5C 64.1925,124.518 64.8592,125.518 65.5,126.5C 65.1814,128.75 65.6814,130.75 67,132.5C 67.3333,131.833 67.6667,131.167 68,130.5C 68.8236,133.882 68.657,137.216 67.5,140.5C 66.2011,139.91 65.3678,138.91 65,137.5C 64.2747,139.158 63.108,139.658 61.5,139C 58.29,135.119 54.29,132.452 49.5,131C 48.2567,129.846 47.2567,128.512 46.5,127C 44.8333,126.667 43.1667,126.333 41.5,126C 41.9574,125.586 42.2907,125.086 42.5,124.5C 41.7695,121.891 41.2695,119.224 41,116.5C 39.2714,116.026 38.1047,115.026 37.5,113.5C 38.3296,106.667 35.3296,104 28.5,105.5C 26.6349,101.972 27.6349,99.6382 31.5,98.5C 34.2487,101.946 37.2487,102.279 40.5,99.5 Z"/></g>
<g><path style="opacity:1" fill="#085d2a" d="M 183.5,115.5 C 183.833,115.5 184.167,115.5 184.5,115.5C 185.925,116.922 186.925,118.589 187.5,120.5C 187.795,122.735 187.461,124.735 186.5,126.5C 186.802,123.941 186.468,121.607 185.5,119.5C 185.167,118.5 184.5,117.833 183.5,117.5C 183.5,116.833 183.5,116.167 183.5,115.5 Z"/></g>
<g><path style="opacity:1" fill="#02453b" d="M 225.5,81.5 C 226.376,81.3691 227.043,81.7025 227.5,82.5C 231.275,91.2104 234.108,100.21 236,109.5C 236.738,122.847 236.571,136.18 235.5,149.5C 233.283,153.4 232.116,157.733 232,162.5C 228.755,167.077 226.421,172.077 225,177.5C 220.726,185.06 215.726,192.06 210,198.5C 208.417,199.971 206.583,200.971 204.5,201.5C 218.162,186.183 227.662,168.517 233,148.5C 235.589,130.652 234.922,112.985 231,95.5C 230.33,92.8261 229.163,90.4927 227.5,88.5C 227.606,85.9214 226.939,83.588 225.5,81.5 Z"/></g>
<g><path style="opacity:1" fill="#4dea5b" d="M 93.5,90.5 C 92.8333,92.1667 92.1667,93.8333 91.5,95.5C 91.5,95.8333 91.5,96.1667 91.5,96.5C 88.6091,100.482 86.2757,104.815 84.5,109.5C 83.8333,109.5 83.5,109.833 83.5,110.5C 80.1364,115.521 76.8031,120.521 73.5,125.5C 73.4249,122.794 73.0916,120.127 72.5,117.5C 74.711,117.033 76.711,116.033 78.5,114.5C 79.7468,112.958 79.7468,111.458 78.5,110C 79.448,109.517 80.448,109.351 81.5,109.5C 81.5,108.5 81.5,107.5 81.5,106.5C 82.5,106.5 83.5,106.5 84.5,106.5C 83.9919,103.824 83.8253,101.157 84,98.5C 85.5545,100.927 86.7211,100.927 87.5,98.5C 89.2227,96.22 89.8893,93.5533 89.5,90.5C 90.8333,90.5 92.1667,90.5 93.5,90.5 Z"/></g>
<g><path style="opacity:0.247" fill="#fdf4df" d="M 101.5,113.5 C 100.921,116.331 99.588,118.664 97.5,120.5C 98.0787,117.669 99.412,115.336 101.5,113.5 Z"/></g>
<g><path style="opacity:1" fill="#38f050" d="M 32.5,97.5 C 35.7858,100.267 38.7858,99.9339 41.5,96.5C 41.4431,97.609 41.1098,98.609 40.5,99.5C 37.2487,102.279 34.2487,101.946 31.5,98.5C 27.6349,99.6382 26.6349,101.972 28.5,105.5C 25.4209,113.413 27.7543,116.079 35.5,113.5C 36.1667,113.5 36.8333,113.5 37.5,113.5C 38.1047,115.026 39.2714,116.026 41,116.5C 41.2695,119.224 41.7695,121.891 42.5,124.5C 42.2907,125.086 41.9574,125.586 41.5,126C 43.1667,126.333 44.8333,126.667 46.5,127C 47.2567,128.512 48.2567,129.846 49.5,131C 54.29,132.452 58.29,135.119 61.5,139C 63.108,139.658 64.2747,139.158 65,137.5C 65.3678,138.91 66.2011,139.91 67.5,140.5C 68.657,137.216 68.8236,133.882 68,130.5C 67.6667,131.167 67.3333,131.833 67,132.5C 65.6814,130.75 65.1814,128.75 65.5,126.5C 67.4786,128.168 69.812,128.834 72.5,128.5C 71.8902,129.391 71.5569,130.391 71.5,131.5C 69.8295,135.742 70.8295,139.409 74.5,142.5C 74.6107,143.117 74.944,143.617 75.5,144C 84.1603,144.5 92.8269,144.666 101.5,144.5C 101.5,145.5 101.5,146.5 101.5,147.5C 101.5,148.167 101.5,148.833 101.5,149.5C 100.89,150.391 100.557,151.391 100.5,152.5C 97.3768,155.976 95.0435,159.976 93.5,164.5C 92.3263,165.514 91.6596,166.847 91.5,168.5C 89.7549,170.033 88.7549,172.033 88.5,174.5C 87.8333,175.167 87.1667,175.833 86.5,176.5C 85.2652,176.721 84.2652,177.388 83.5,178.5C 82.914,178.291 82.414,177.957 82,177.5C 81.5065,179.134 81.3398,180.801 81.5,182.5C 76.5639,181.917 72.2306,179.583 68.5,175.5C 69.2674,174.828 69.9341,173.995 70.5,173C 68.7091,172.585 67.3757,171.585 66.5,170C 68.7562,169.635 71.0895,169.468 73.5,169.5C 74.6627,167.45 74.4961,165.45 73,163.5C 72.6667,165.167 72.3333,166.833 72,168.5C 69.3115,161.285 64.8115,154.452 58.5,148C 56.5,147 54.5,146 52.5,145C 52.8333,144.667 53.1667,144.333 53.5,144C 52.2298,143.1 51.2298,141.934 50.5,140.5C 46.9579,144.122 46.6245,143.455 49.5,138.5C 50.0253,137.808 50.6919,137.308 51.5,137C 50.3333,136.5 49.5,135.667 49,134.5C 48.1636,136.842 46.8302,138.842 45,140.5C 41.5599,137.236 38.7265,133.569 36.5,129.5C 33.7721,128.14 31.4388,126.307 29.5,124C 30.2718,122.779 31.2718,121.779 32.5,121C 32.1667,120.667 31.8333,120.333 31.5,120C 35.0822,119.405 35.4155,118.071 32.5,116C 30.4213,115.192 28.4213,115.359 26.5,116.5C 27.8793,117.863 27.7126,118.863 26,119.5C 24.2856,118.924 23.1189,117.757 22.5,116C 21.2068,115.51 19.8734,115.343 18.5,115.5C 19.6843,108.877 20.6843,102.211 21.5,95.5C 25.1672,87.5436 28.8339,79.5436 32.5,71.5C 33.5,71.5 34.5,71.5 35.5,71.5C 35.317,73.9363 35.9837,76.103 37.5,78C 36.7734,79.3988 36.2734,80.8988 36,82.5C 35.1072,81.2888 34.2739,81.2888 33.5,82.5C 34.4847,84.0983 34.6514,85.765 34,87.5C 33.586,87.0426 33.086,86.7093 32.5,86.5C 31.0069,88.3636 30.3403,90.5303 30.5,93C 30.5687,94.9855 31.2353,96.4855 32.5,97.5 Z"/></g>
<g><path style="opacity:0.008" fill="#e8eeef" d="M 94.5,116.5 C 94.2503,118.674 93.2503,120.341 91.5,121.5C 91.7497,119.326 92.7497,117.659 94.5,116.5 Z"/></g>
<g><path style="opacity:1" fill="#f66f1d" d="M 141.5,105.5 C 139.887,105.944 138.72,106.944 138,108.5C 137.257,106.355 136.424,106.189 135.5,108C 137.232,111.568 136.399,114.401 133,116.5C 131.984,119.626 132.817,121.959 135.5,123.5C 131.971,125.423 127.971,126.089 123.5,125.5C 123.35,121.805 124.35,118.472 126.5,115.5C 129.488,110.194 132.488,104.861 135.5,99.5C 135.957,98.7025 136.624,98.3691 137.5,98.5C 139.074,98.0629 140.241,97.0629 141,95.5C 141.89,91.4885 143.89,88.1552 147,85.5C 150.346,88.154 150.179,90.4874 146.5,92.5C 145.409,97.1145 143.742,101.448 141.5,105.5 Z"/></g>
<g><path style="opacity:1" fill="#dc6e37" d="M 141.5,105.5 C 140.447,108.607 139.114,111.607 137.5,114.5C 134.483,116.905 133.817,119.905 135.5,123.5C 132.817,121.959 131.984,119.626 133,116.5C 136.399,114.401 137.232,111.568 135.5,108C 136.424,106.189 137.257,106.355 138,108.5C 138.72,106.944 139.887,105.944 141.5,105.5 Z"/></g>
<g><path style="opacity:1" fill="#053543" d="M 103.5,99.5 C 102.559,101.05 101.893,102.716 101.5,104.5C 99.0002,107.494 97.0002,110.827 95.5,114.5C 95.6716,115.492 95.3382,116.158 94.5,116.5C 92.7497,117.659 91.7497,119.326 91.5,121.5C 88.8352,123.835 87.5018,126.835 87.5,130.5C 89.1667,130.5 90.8333,130.5 92.5,130.5C 101.318,131.493 110.318,131.827 119.5,131.5C 120.11,132.391 120.443,133.391 120.5,134.5C 118.679,135.117 116.679,135.284 114.5,135C 115.308,136.706 116.641,137.539 118.5,137.5C 119.33,143.491 117.83,144.158 114,139.5C 113.667,139.833 113.333,140.167 113,140.5C 113.239,142.609 113.739,144.776 114.5,147C 114.173,149.478 113.173,151.644 111.5,153.5C 110.549,152.674 109.549,152.508 108.5,153C 110.037,154.11 110.703,155.61 110.5,157.5C 109.5,157.5 108.5,157.5 107.5,157.5C 107.085,162.502 105.752,167.169 103.5,171.5C 102.127,171.343 100.793,171.51 99.5,172C 100.337,173.011 100.67,174.178 100.5,175.5C 99.0695,175.421 97.7362,175.754 96.5,176.5C 95.7564,175.009 95.0897,173.509 94.5,172C 97.3562,169.952 98.0228,167.452 96.5,164.5C 97.7547,160.539 99.0881,156.539 100.5,152.5C 100.557,151.391 100.89,150.391 101.5,149.5C 103.262,148.738 104.262,147.404 104.5,145.5C 105.917,142.683 104.917,141.017 101.5,140.5C 93.2023,141.44 84.869,141.774 76.5,141.5C 72.7228,139.279 71.0561,135.946 71.5,131.5C 71.5569,130.391 71.8902,129.391 72.5,128.5C 72.5,127.833 72.8333,127.5 73.5,127.5C 75.9448,125.744 77.7782,123.411 79,120.5C 81.3909,121.602 81.8909,120.936 80.5,118.5C 81.9,115.965 82.9,113.298 83.5,110.5C 83.5,109.833 83.8333,109.5 84.5,109.5C 88.0821,106.013 90.4154,101.68 91.5,96.5C 91.5,96.1667 91.5,95.8333 91.5,95.5C 93.1942,94.4726 94.5275,93.1392 95.5,91.5C 96.1174,91.3893 96.6174,91.056 97,90.5C 97.1858,92.9005 97.6858,95.2338 98.5,97.5C 99.7596,95.6471 99.7596,93.8138 98.5,92C 99.6184,90.9264 100.618,89.7598 101.5,88.5C 102.086,88.7093 102.586,89.0426 103,89.5C 103.498,92.8168 103.665,96.1501 103.5,99.5 Z"/></g>
<g><path style="opacity:1" fill="#38301c" d="M 137.5,114.5 C 135.698,118.697 136.365,122.364 139.5,125.5C 139.167,125.5 138.833,125.5 138.5,125.5C 137.5,124.833 136.5,124.167 135.5,123.5C 133.817,119.905 134.483,116.905 137.5,114.5 Z"/></g>
<g><path style="opacity:1" fill="#2ef050" d="M 17.5,115.5 C 17.8333,115.5 18.1667,115.5 18.5,115.5C 19.8734,115.343 21.2068,115.51 22.5,116C 23.1189,117.757 24.2856,118.924 26,119.5C 27.7126,118.863 27.8793,117.863 26.5,116.5C 28.4213,115.359 30.4213,115.192 32.5,116C 35.4155,118.071 35.0822,119.405 31.5,120C 31.8333,120.333 32.1667,120.667 32.5,121C 31.2718,121.779 30.2718,122.779 29.5,124C 31.4388,126.307 33.7721,128.14 36.5,129.5C 38.7265,133.569 41.5599,137.236 45,140.5C 46.8302,138.842 48.1636,136.842 49,134.5C 49.5,135.667 50.3333,136.5 51.5,137C 50.6919,137.308 50.0253,137.808 49.5,138.5C 46.6245,143.455 46.9579,144.122 50.5,140.5C 51.2298,141.934 52.2298,143.1 53.5,144C 53.1667,144.333 52.8333,144.667 52.5,145C 54.5,146 56.5,147 58.5,148C 64.8115,154.452 69.3115,161.285 72,168.5C 72.3333,166.833 72.6667,165.167 73,163.5C 74.4961,165.45 74.6627,167.45 73.5,169.5C 71.0895,169.468 68.7562,169.635 66.5,170C 67.3757,171.585 68.7091,172.585 70.5,173C 69.9341,173.995 69.2674,174.828 68.5,175.5C 66.2876,171.435 63.7876,167.435 61,163.5C 60.6924,164.308 60.1924,164.975 59.5,165.5C 54.7619,162.935 54.7619,161.602 59.5,161.5C 59.5,160.167 59.5,158.833 59.5,157.5C 54.7583,157.107 49.9249,156.107 45,154.5C 44.586,154.957 44.086,155.291 43.5,155.5C 44.3361,151.918 43.1694,148.918 40,146.5C 38.4931,147.535 36.9931,147.368 35.5,146C 35.8333,145.667 36.1667,145.333 36.5,145C 31.8674,144.529 29.2007,142.029 28.5,137.5C 26.703,141.687 25.3697,146.02 24.5,150.5C 23.2724,148.824 21.9391,148.491 20.5,149.5C 18.186,138.982 17.186,128.315 17.5,117.5C 17.5,116.833 17.5,116.167 17.5,115.5 Z"/></g>
<g><path style="opacity:1" fill="#0b512f" d="M 83.5,110.5 C 82.9,113.298 81.9,115.965 80.5,118.5C 81.8909,120.936 81.3909,121.602 79,120.5C 77.7782,123.411 75.9448,125.744 73.5,127.5C 73.5,126.833 73.5,126.167 73.5,125.5C 76.8031,120.521 80.1364,115.521 83.5,110.5 Z"/></g>
<g><path style="opacity:1" fill="#f9c125" d="M 107.5,106.5 C 107.635,108.554 106.968,110.221 105.5,111.5C 104.387,112.946 104.22,114.613 105,116.5C 105.414,116.043 105.914,115.709 106.5,115.5C 107.626,117.793 108.959,119.96 110.5,122C 109.953,122.925 109.287,123.758 108.5,124.5C 106.144,122.31 103.644,120.31 101,118.5C 99.815,121.932 98.6484,125.265 97.5,128.5C 103.5,128.5 109.5,128.5 115.5,128.5C 114.346,122.922 115.846,121.588 120,124.5C 120.505,122.482 121.005,120.482 121.5,118.5C 122.67,116.721 124.336,115.721 126.5,115.5C 124.35,118.472 123.35,121.805 123.5,125.5C 127.971,126.089 131.971,125.423 135.5,123.5C 136.5,124.167 137.5,124.833 138.5,125.5C 138.5,125.833 138.5,126.167 138.5,126.5C 137.25,126.577 136.417,127.244 136,128.5C 131.882,127.202 127.715,127.202 123.5,128.5C 122.388,129.265 121.721,130.265 121.5,131.5C 120.833,131.5 120.167,131.5 119.5,131.5C 119.082,130.778 118.416,130.278 117.5,130C 109.507,129.5 101.507,129.334 93.5,129.5C 93.5,128.833 93.5,128.167 93.5,127.5C 95.2503,126.341 96.2503,124.674 96.5,122.5C 96.3284,121.508 96.6618,120.842 97.5,120.5C 99.588,118.664 100.921,116.331 101.5,113.5C 102.906,113.027 103.573,112.027 103.5,110.5C 104.833,109.167 106.167,107.833 107.5,106.5 Z"/></g>
<g><path style="opacity:0.271" fill="#fbf2da" d="M 96.5,122.5 C 96.2503,124.674 95.2503,126.341 93.5,127.5C 93.7497,125.326 94.7497,123.659 96.5,122.5 Z"/></g>
<g><path style="opacity:1" fill="#08712e" d="M 17.5,109.5 C 17.5,111.5 17.5,113.5 17.5,115.5C 17.5,116.167 17.5,116.833 17.5,117.5C 16.5093,123.979 16.176,130.646 16.5,137.5C 15.8345,133.849 15.5012,130.015 15.5,126C 15.3112,120.248 15.9779,114.748 17.5,109.5 Z"/></g>
<g><path style="opacity:1" fill="#76782f" d="M 138.5,126.5 C 138.5,126.167 138.5,125.833 138.5,125.5C 138.833,125.5 139.167,125.5 139.5,125.5C 144.07,126.441 148.737,126.774 153.5,126.5C 153.5,126.833 153.5,127.167 153.5,127.5C 153.167,127.5 152.833,127.5 152.5,127.5C 147.737,127.774 143.07,127.441 138.5,126.5 Z"/></g>
<g><path style="opacity:1" fill="#60523b" d="M 153.5,127.5 C 153.5,127.167 153.5,126.833 153.5,126.5C 157.833,126.5 162.167,126.5 166.5,126.5C 166.737,127.791 166.404,128.791 165.5,129.5C 161.971,127.577 157.971,126.911 153.5,127.5 Z"/></g>
<g><path style="opacity:1" fill="#bd753f" d="M 152.5,128.5 C 152.5,128.167 152.5,127.833 152.5,127.5C 152.833,127.5 153.167,127.5 153.5,127.5C 157.971,126.911 161.971,127.577 165.5,129.5C 164.833,129.5 164.5,129.833 164.5,130.5C 164.167,130.5 163.833,130.5 163.5,130.5C 160.316,128.586 156.649,127.92 152.5,128.5 Z"/></g>
<g><path style="opacity:1" fill="#093639" d="M 148.5,96.5 C 148.753,98.8273 148.086,100.827 146.5,102.5C 146.667,102.833 146.833,103.167 147,103.5C 148.333,102.167 149.667,100.833 151,99.5C 151.667,100.5 151.667,101.5 151,102.5C 146.949,106.755 142.782,110.922 138.5,115C 139.872,118.026 140.538,121.193 140.5,124.5C 145.167,124.5 149.833,124.5 154.5,124.5C 154.238,123.022 154.571,121.689 155.5,120.5C 159.378,121.928 159.378,123.428 155.5,125C 158.833,125.667 162.167,125.667 165.5,125C 166.755,122.54 168.755,121.373 171.5,121.5C 171.5,122.5 171.5,123.5 171.5,124.5C 168.5,124.167 167.167,125.5 167.5,128.5C 171.56,127.848 173.56,129.515 173.5,133.5C 174.833,133.5 176.167,133.5 177.5,133.5C 177.5,132.5 177.5,131.5 177.5,130.5C 178.833,130.5 180.167,130.5 181.5,130.5C 180.986,128.488 180.82,126.488 181,124.5C 182.406,123.332 183.572,123.665 184.5,125.5C 185.466,123.604 185.799,121.604 185.5,119.5C 186.468,121.607 186.802,123.941 186.5,126.5C 186.5,126.833 186.5,127.167 186.5,127.5C 180.177,132.491 174.177,137.824 168.5,143.5C 166.924,139.695 167.591,136.529 170.5,134C 168.293,132.368 165.96,132.368 163.5,134C 162.167,135 162.167,136 163.5,137C 161.934,137.765 160.601,137.598 159.5,136.5C 161.137,134.525 162.804,132.525 164.5,130.5C 164.5,129.833 164.833,129.5 165.5,129.5C 166.404,128.791 166.737,127.791 166.5,126.5C 162.167,126.5 157.833,126.5 153.5,126.5C 148.737,126.774 144.07,126.441 139.5,125.5C 136.365,122.364 135.698,118.697 137.5,114.5C 139.114,111.607 140.447,108.607 141.5,105.5C 143.063,104.055 144.396,102.389 145.5,100.5C 146.857,99.4097 147.857,98.0764 148.5,96.5 Z"/></g>
<g><path style="opacity:0.59" fill="#b4bcba" d="M 91.5,121.5 C 90.7878,123.928 89.7878,126.261 88.5,128.5C 90.3971,129.652 92.0638,129.319 93.5,127.5C 93.5,128.167 93.5,128.833 93.5,129.5C 93.5,130.167 93.1667,130.5 92.5,130.5C 90.8333,130.5 89.1667,130.5 87.5,130.5C 87.5018,126.835 88.8352,123.835 91.5,121.5 Z"/></g>
<g><path style="opacity:1" fill="#3f4c2d" d="M 93.5,129.5 C 101.507,129.334 109.507,129.5 117.5,130C 118.416,130.278 119.082,130.778 119.5,131.5C 110.318,131.827 101.318,131.493 92.5,130.5C 93.1667,130.5 93.5,130.167 93.5,129.5 Z"/></g>
<g><path style="opacity:1" fill="#464b10" d="M 119.5,131.5 C 120.167,131.5 120.833,131.5 121.5,131.5C 121.833,132.167 122.167,132.833 122.5,133.5C 122.768,135.099 122.434,136.432 121.5,137.5C 121.737,136.209 121.404,135.209 120.5,134.5C 120.443,133.391 120.11,132.391 119.5,131.5 Z"/></g>
<g><path style="opacity:1" fill="#473a25" d="M 163.5,130.5 C 163.833,130.5 164.167,130.5 164.5,130.5C 162.804,132.525 161.137,134.525 159.5,136.5C 158.833,136.5 158.167,136.5 157.5,136.5C 159.118,134.215 161.118,132.215 163.5,130.5 Z"/></g>
<g><path style="opacity:1" fill="#045a1f" d="M 71.5,131.5 C 71.0561,135.946 72.7228,139.279 76.5,141.5C 76.5,141.833 76.5,142.167 76.5,142.5C 75.8333,142.5 75.1667,142.5 74.5,142.5C 70.8295,139.409 69.8295,135.742 71.5,131.5 Z"/></g>
<g><path style="opacity:1" fill="#fcc71a" d="M 138.5,126.5 C 143.07,127.441 147.737,127.774 152.5,127.5C 152.5,127.833 152.5,128.167 152.5,128.5C 146.526,134.139 140.526,139.805 134.5,145.5C 131.881,145.232 129.381,145.565 127,146.5C 125.374,145.045 124.208,143.378 123.5,141.5C 123.806,138.615 123.473,135.948 122.5,133.5C 122.167,132.833 121.833,132.167 121.5,131.5C 121.721,130.265 122.388,129.265 123.5,128.5C 127.715,127.202 131.882,127.202 136,128.5C 136.417,127.244 137.25,126.577 138.5,126.5 Z"/></g>
<g><path style="opacity:1" fill="#0fbd5b" d="M 187.5,120.5 C 188.753,125.51 188.253,130.51 186,135.5C 182.578,139.096 178.744,142.096 174.5,144.5C 175.673,141.933 176.839,139.267 178,136.5C 179.532,134.438 181.532,133.104 184,132.5C 185.094,130.922 185.928,129.255 186.5,127.5C 186.5,127.167 186.5,126.833 186.5,126.5C 187.461,124.735 187.795,122.735 187.5,120.5 Z"/></g>
<g><path style="opacity:0.216" fill="#cbd4d7" d="M 250.5,132.5 C 250.784,138.417 250.117,144.084 248.5,149.5C 248.717,143.64 249.383,137.973 250.5,132.5 Z"/></g>
<g><path style="opacity:1" fill="#003e2e" d="M 104.5,145.5 C 104.5,144.5 104.5,143.5 104.5,142.5C 95.1667,142.5 85.8333,142.5 76.5,142.5C 76.5,142.167 76.5,141.833 76.5,141.5C 84.869,141.774 93.2023,141.44 101.5,140.5C 104.917,141.017 105.917,142.683 104.5,145.5 Z"/></g>
<g><path style="opacity:1" fill="#15703b" d="M 76.5,142.5 C 85.8333,142.5 95.1667,142.5 104.5,142.5C 104.5,143.5 104.5,144.5 104.5,145.5C 104.262,147.404 103.262,148.738 101.5,149.5C 101.5,148.833 101.5,148.167 101.5,147.5C 103.104,146.713 103.771,145.38 103.5,143.5C 94.3178,143.827 85.3178,143.493 76.5,142.5 Z"/></g>
<g><path style="opacity:1" fill="#3cc95e" d="M 74.5,142.5 C 75.1667,142.5 75.8333,142.5 76.5,142.5C 85.3178,143.493 94.3178,143.827 103.5,143.5C 103.771,145.38 103.104,146.713 101.5,147.5C 101.5,146.5 101.5,145.5 101.5,144.5C 92.8269,144.666 84.1603,144.5 75.5,144C 74.944,143.617 74.6107,143.117 74.5,142.5 Z"/></g>
<g><path style="opacity:1" fill="#dcb534" d="M 122.5,133.5 C 123.473,135.948 123.806,138.615 123.5,141.5C 121.455,142.923 120.455,144.923 120.5,147.5C 119.5,147.5 118.5,147.5 117.5,147.5C 119.032,144.234 120.366,140.901 121.5,137.5C 122.434,136.432 122.768,135.099 122.5,133.5 Z"/></g>
<g><path style="opacity:1" fill="#0a7e5c" d="M 168.5,143.5 C 166.883,146.784 164.55,149.451 161.5,151.5C 163.146,148.19 165.48,145.523 168.5,143.5 Z"/></g>
<g><path style="opacity:1" fill="#35bb65" d="M 17.5,143.5 C 19.0739,145.102 19.7406,147.102 19.5,149.5C 17.9261,147.898 17.2594,145.898 17.5,143.5 Z"/></g>
<g><path style="opacity:1" fill="#de7139" d="M 156.5,136.5 C 150.942,142.412 145.275,148.078 139.5,153.5C 138.833,153.5 138.167,153.5 137.5,153.5C 137.5,152.167 137.5,150.833 137.5,149.5C 141.734,149.594 144.067,147.594 144.5,143.5C 149.594,143.583 151.427,141.25 150,136.5C 152.081,137.333 154.248,137.333 156.5,136.5 Z"/></g>
<g><path style="opacity:1" fill="#30312b" d="M 156.5,136.5 C 156.833,136.5 157.167,136.5 157.5,136.5C 157.649,137.552 157.483,138.552 157,139.5C 153.167,142 150,145.167 147.5,149C 145.047,150.975 142.381,152.475 139.5,153.5C 145.275,148.078 150.942,142.412 156.5,136.5 Z"/></g>
<g><path style="opacity:0.055" fill="#dce3e4" d="M 248.5,149.5 C 248.706,152.495 248.04,155.162 246.5,157.5C 246.565,154.572 247.232,151.905 248.5,149.5 Z"/></g>
<g><path style="opacity:1" fill="#26ec52" d="M 68.5,175.5 C 72.2306,179.583 76.5639,181.917 81.5,182.5C 81.5299,183.497 81.0299,184.164 80,184.5C 70.5247,181.668 62.6913,176.502 56.5,169C 54.4153,168.471 52.582,168.971 51,170.5C 47.0705,168.131 43.2372,165.631 39.5,163C 38.2506,162.26 37.2506,162.427 36.5,163.5C 33.7957,167.63 32.4623,172.297 32.5,177.5C 31.5,177.5 30.5,177.5 29.5,177.5C 29.5,177.167 29.5,176.833 29.5,176.5C 26.5929,167.496 23.5929,158.496 20.5,149.5C 21.9391,148.491 23.2724,148.824 24.5,150.5C 25.3697,146.02 26.703,141.687 28.5,137.5C 29.2007,142.029 31.8674,144.529 36.5,145C 36.1667,145.333 35.8333,145.667 35.5,146C 36.9931,147.368 38.4931,147.535 40,146.5C 43.1694,148.918 44.3361,151.918 43.5,155.5C 44.086,155.291 44.586,154.957 45,154.5C 49.9249,156.107 54.7583,157.107 59.5,157.5C 59.5,158.833 59.5,160.167 59.5,161.5C 54.7619,161.602 54.7619,162.935 59.5,165.5C 60.1924,164.975 60.6924,164.308 61,163.5C 63.7876,167.435 66.2876,171.435 68.5,175.5 Z"/></g>
<g><path style="opacity:1" fill="#f9ba1f" d="M 123.5,141.5 C 124.208,143.378 125.374,145.045 127,146.5C 129.381,145.565 131.881,145.232 134.5,145.5C 124.446,156.221 114.113,166.554 103.5,176.5C 103.5,175.833 103.5,175.167 103.5,174.5C 107.388,165.057 112.054,156.057 117.5,147.5C 118.5,147.5 119.5,147.5 120.5,147.5C 120.455,144.923 121.455,142.923 123.5,141.5 Z"/></g>
<g><path style="opacity:1" fill="#2ff156" d="M 204.5,74.5 C 209.859,119.237 194.859,155.07 159.5,182C 157.392,182.36 155.392,183.027 153.5,184C 145.849,191.315 136.849,194.815 126.5,194.5C 129.563,191.442 132.23,188.108 134.5,184.5C 138.116,180.546 141.783,176.546 145.5,172.5C 153.503,164.693 161.837,157.193 170.5,150C 171.977,148.188 173.31,146.355 174.5,144.5C 178.744,142.096 182.578,139.096 186,135.5C 188.253,130.51 188.753,125.51 187.5,120.5C 186.925,118.589 185.925,116.922 184.5,115.5C 183.599,113.273 181.933,112.273 179.5,112.5C 180.833,110.167 180.833,107.833 179.5,105.5C 181.467,105.739 183.301,105.406 185,104.5C 185.75,105.126 186.584,105.626 187.5,106C 185.878,107.295 184.545,108.795 183.5,110.5C 186.867,115.364 190.534,120.031 194.5,124.5C 192.766,128.701 192.266,133.035 193,137.5C 193.763,132.546 195.263,127.88 197.5,123.5C 196.184,122.193 195.184,120.693 194.5,119C 195.714,116.649 196.548,114.149 197,111.5C 197.667,112.833 198.333,114.167 199,115.5C 199.317,113.699 199.984,113.366 201,114.5C 201.798,111.107 202.798,107.774 204,104.5C 204.5,94.5056 204.666,84.5056 204.5,74.5 Z"/></g>
<g><path style="opacity:1" fill="#33da61" d="M 17.5,117.5 C 17.186,128.315 18.186,138.982 20.5,149.5C 23.5929,158.496 26.5929,167.496 29.5,176.5C 26.7661,173.211 24.7661,169.545 23.5,165.5C 23.5,165.167 23.5,164.833 23.5,164.5C 22.8303,161.327 21.6636,158.327 20,155.5C 19.5045,153.527 19.3379,151.527 19.5,149.5C 19.7406,147.102 19.0739,145.102 17.5,143.5C 17.7947,141.265 17.4614,139.265 16.5,137.5C 16.176,130.646 16.5093,123.979 17.5,117.5 Z"/></g>
<g><path style="opacity:1" fill="#5d3f28" d="M 137.5,153.5 C 138.167,153.5 138.833,153.5 139.5,153.5C 132.425,161.911 124.425,169.244 115.5,175.5C 123.013,168.654 130.346,161.321 137.5,153.5 Z"/></g>
<g><path style="opacity:1" fill="#085036" d="M 100.5,152.5 C 99.0881,156.539 97.7547,160.539 96.5,164.5C 95.5,164.5 94.5,164.5 93.5,164.5C 95.0435,159.976 97.3768,155.976 100.5,152.5 Z"/></g>
<g><path style="opacity:1" fill="#1d362e" d="M 120.5,134.5 C 121.404,135.209 121.737,136.209 121.5,137.5C 120.366,140.901 119.032,144.234 117.5,147.5C 112.054,156.057 107.388,165.057 103.5,174.5C 103.167,174.5 102.833,174.5 102.5,174.5C 102.557,173.391 102.89,172.391 103.5,171.5C 105.752,167.169 107.085,162.502 107.5,157.5C 108.5,157.5 109.5,157.5 110.5,157.5C 110.703,155.61 110.037,154.11 108.5,153C 109.549,152.508 110.549,152.674 111.5,153.5C 113.173,151.644 114.173,149.478 114.5,147C 113.739,144.776 113.239,142.609 113,140.5C 113.333,140.167 113.667,139.833 114,139.5C 117.83,144.158 119.33,143.491 118.5,137.5C 116.641,137.539 115.308,136.706 114.5,135C 116.679,135.284 118.679,135.117 120.5,134.5 Z"/></g>
<g><path style="opacity:1" fill="#03d661" d="M 221.5,144.5 C 221.817,147.572 221.484,150.572 220.5,153.5C 217.856,156.313 216.356,159.646 216,163.5C 213,168.833 210,174.167 207,179.5C 205.618,182.043 203.785,184.043 201.5,185.5C 201.343,184.127 201.51,182.793 202,181.5C 204.306,180.863 205.473,179.363 205.5,177C 204.692,174.925 203.358,173.258 201.5,172C 202.036,169.76 203.203,167.927 205,166.5C 205.494,164.866 205.66,163.199 205.5,161.5C 207.124,161.64 208.29,160.973 209,159.5C 210.117,160.949 210.784,162.616 211,164.5C 212.912,162.343 214.579,160.009 216,157.5C 215.682,152.147 217.516,147.814 221.5,144.5 Z"/></g>
<g><path style="opacity:0.016" fill="#dbe3e4" d="M 246.5,157.5 C 246.59,160.152 245.924,162.485 244.5,164.5C 244.41,161.848 245.076,159.515 246.5,157.5 Z"/></g>
<g><path style="opacity:1" fill="#f5701f" d="M 152.5,128.5 C 156.649,127.92 160.316,128.586 163.5,130.5C 161.118,132.215 159.118,134.215 157.5,136.5C 157.167,136.5 156.833,136.5 156.5,136.5C 154.248,137.333 152.081,137.333 150,136.5C 151.427,141.25 149.594,143.583 144.5,143.5C 144.067,147.594 141.734,149.594 137.5,149.5C 137.5,150.833 137.5,152.167 137.5,153.5C 130.346,161.321 123.013,168.654 115.5,175.5C 114.833,175.5 114.5,175.833 114.5,176.5C 111.883,177.786 109.55,179.453 107.5,181.5C 105.833,181.5 104.167,181.5 102.5,181.5C 102.366,179.708 102.699,178.042 103.5,176.5C 114.113,166.554 124.446,156.221 134.5,145.5C 140.526,139.805 146.526,134.139 152.5,128.5 Z"/></g>
<g><path style="opacity:0.039" fill="#e2e7e8" d="M 5.5,162.5 C 6.73838,164.214 7.40505,166.214 7.5,168.5C 5.92606,166.898 5.25939,164.898 5.5,162.5 Z"/></g>
<g><path style="opacity:1" fill="#108763" d="M 158.5,153.5 C 153.443,159.559 147.776,164.893 141.5,169.5C 146.557,163.441 152.224,158.107 158.5,153.5 Z"/></g>
<g><path style="opacity:0.192" fill="#e2f9e8" d="M 36.5,163.5 C 38.9236,166.008 40.5903,169.008 41.5,172.5C 39.7775,170.747 38.2775,168.747 37,166.5C 36.6097,169.104 35.7763,171.438 34.5,173.5C 34.8511,170.097 35.5178,166.763 36.5,163.5 Z"/></g>
<g><path style="opacity:1" fill="#09b169" d="M 186.5,127.5 C 185.928,129.255 185.094,130.922 184,132.5C 181.532,133.104 179.532,134.438 178,136.5C 176.839,139.267 175.673,141.933 174.5,144.5C 173.31,146.355 171.977,148.188 170.5,150C 161.837,157.193 153.503,164.693 145.5,172.5C 144.391,172.557 143.391,172.89 142.5,173.5C 141.766,172.292 141.433,170.959 141.5,169.5C 147.776,164.893 153.443,159.559 158.5,153.5C 159.222,152.449 160.222,151.782 161.5,151.5C 164.55,149.451 166.883,146.784 168.5,143.5C 174.177,137.824 180.177,132.491 186.5,127.5 Z"/></g>
<g><path style="opacity:1" fill="#7cda8c" d="M 36.5,163.5 C 35.5178,166.763 34.8511,170.097 34.5,173.5C 34.2962,176.518 33.9629,179.518 33.5,182.5C 32.8333,182.167 32.1667,181.833 31.5,181.5C 31.2671,179.938 30.6005,178.605 29.5,177.5C 30.5,177.5 31.5,177.5 32.5,177.5C 32.4623,172.297 33.7957,167.63 36.5,163.5 Z"/></g>
<g><path style="opacity:1" fill="#0b3a3e" d="M 93.5,164.5 C 94.5,164.5 95.5,164.5 96.5,164.5C 98.0228,167.452 97.3562,169.952 94.5,172C 95.0897,173.509 95.7564,175.009 96.5,176.5C 97.7362,175.754 99.0695,175.421 100.5,175.5C 100.67,174.178 100.337,173.011 99.5,172C 100.793,171.51 102.127,171.343 103.5,171.5C 102.89,172.391 102.557,173.391 102.5,174.5C 100.576,178.017 98.9094,181.684 97.5,185.5C 97.1667,185.5 96.8333,185.5 96.5,185.5C 94.8571,183.292 95.1904,181.459 97.5,180C 95.8421,178.337 93.8421,177.504 91.5,177.5C 92.1011,180.549 92.6011,183.549 93,186.5C 92.2801,184.745 91.1134,183.911 89.5,184C 88.0702,186.809 86.0702,189.143 83.5,191C 84.2524,191.671 84.5858,192.504 84.5,193.5C 83.0069,192.688 82.3402,191.355 82.5,189.5C 82.7284,187.793 83.0617,186.126 83.5,184.5C 84.5,181.833 85.5,179.167 86.5,176.5C 87.1667,175.833 87.8333,175.167 88.5,174.5C 90.2451,172.967 91.2451,170.967 91.5,168.5C 91.6596,166.847 92.3263,165.514 93.5,164.5 Z"/></g>
<g><path style="opacity:0.031" fill="#ddf4e8" d="M 41.5,172.5 C 43.2624,173.262 44.2624,174.596 44.5,176.5C 42.7376,175.738 41.7376,174.404 41.5,172.5 Z"/></g>
<g><path style="opacity:1" fill="#0b6b34" d="M 91.5,168.5 C 91.2451,170.967 90.2451,172.967 88.5,174.5C 88.7549,172.033 89.7549,170.033 91.5,168.5 Z"/></g>
<g><path style="opacity:0.129" fill="#dee3e3" d="M 8.5,171.5 C 9.67373,172.514 10.3404,173.847 10.5,175.5C 8.89578,174.713 8.22911,173.38 8.5,171.5 Z"/></g>
<g><path style="opacity:1" fill="#07d95b" d="M 36.5,163.5 C 37.2506,162.427 38.2506,162.26 39.5,163C 43.2372,165.631 47.0705,168.131 51,170.5C 52.582,168.971 54.4153,168.471 56.5,169C 62.6913,176.502 70.5247,181.668 80,184.5C 81.0299,184.164 81.5299,183.497 81.5,182.5C 81.3398,180.801 81.5065,179.134 82,177.5C 82.414,177.957 82.914,178.291 83.5,178.5C 84.2652,177.388 85.2652,176.721 86.5,176.5C 85.5,179.167 84.5,181.833 83.5,184.5C 82.5,184.833 81.8333,185.5 81.5,186.5C 80.8826,186.611 80.3826,186.944 80,187.5C 79.9973,191.436 79.164,195.103 77.5,198.5C 79.0396,199.532 79.5396,200.865 79,202.5C 76.7063,202.952 74.2063,202.952 71.5,202.5C 69.0478,202.539 67.0478,203.206 65.5,204.5C 65.1667,204.5 64.8333,204.5 64.5,204.5C 59.0375,204.689 53.7041,205.355 48.5,206.5C 49.6748,203.991 49.6748,201.491 48.5,199C 51.3321,193.996 51.9988,188.829 50.5,183.5C 48.7267,180.94 46.7267,178.607 44.5,176.5C 44.2624,174.596 43.2624,173.262 41.5,172.5C 40.5903,169.008 38.9236,166.008 36.5,163.5 Z"/></g>
<g><path style="opacity:1" fill="#04ba61" d="M 145.5,172.5 C 141.783,176.546 138.116,180.546 134.5,184.5C 131.215,187.118 128.215,190.118 125.5,193.5C 122.586,194.906 120.086,196.906 118,199.5C 115.787,203.382 112.953,206.882 109.5,210C 106.5,210.667 103.5,210.667 100.5,210C 98.257,208.864 95.9237,208.03 93.5,207.5C 93.5792,206.07 93.2458,204.736 92.5,203.5C 90.8164,202.85 89.4831,201.85 88.5,200.5C 90.403,200.796 92.0697,201.463 93.5,202.5C 94.6275,205.745 96.9608,207.578 100.5,208C 107.271,209.324 112.271,206.99 115.5,201C 115.265,200.127 114.931,199.293 114.5,198.5C 117.059,194.269 120.726,191.602 125.5,190.5C 128.815,185.357 132.648,180.69 137,176.5C 138.583,175.029 140.417,174.029 142.5,173.5C 143.391,172.89 144.391,172.557 145.5,172.5 Z"/></g>
<g><path style="opacity:1" fill="#073541" d="M 14.5,109.5 C 14.3335,120.505 14.5002,131.505 15,142.5C 16.0187,147.908 17.352,153.242 19,158.5C 20.2775,160.747 21.7775,162.747 23.5,164.5C 23.5,164.833 23.5,165.167 23.5,165.5C 23.8844,170.037 25.0511,174.371 27,178.5C 28.2708,179.883 29.7708,180.883 31.5,181.5C 32.1667,181.833 32.8333,182.167 33.5,182.5C 33.427,184.027 34.0937,185.027 35.5,185.5C 36.3382,185.842 36.6716,186.508 36.5,187.5C 34.5619,191.982 33.2286,196.649 32.5,201.5C 32.7373,202.791 32.404,203.791 31.5,204.5C 30.3228,206.679 29.3228,209.013 28.5,211.5C 27.5,211.5 26.5,211.5 25.5,211.5C 25.4358,215.22 24.9358,218.886 24,222.5C 22.2859,223.925 20.9525,223.592 20,221.5C 19.9068,217.159 19.9068,212.826 20,208.5C 18.456,211.264 17.2893,211.097 16.5,208C 19.2418,202.374 20.9085,196.374 21.5,190C 15.7375,182.662 12.0709,174.329 10.5,165C 11.8331,163.16 11.6665,162.66 10,163.5C 6.88693,158.724 6.72027,153.89 9.5,149C 8.9089,146.761 8.24223,144.594 7.5,142.5C 7.58577,141.504 7.25244,140.671 6.5,140C 7.31038,134.249 7.81038,128.416 8,122.5C 8.71752,121.549 9.55085,121.383 10.5,122C 11.0712,123.205 11.7379,124.372 12.5,125.5C 13.1668,120.015 13.8335,114.681 14.5,109.5 Z"/></g>
<g><path style="opacity:1" fill="#054732" d="M 23.5,165.5 C 24.7661,169.545 26.7661,173.211 29.5,176.5C 29.5,176.833 29.5,177.167 29.5,177.5C 30.6005,178.605 31.2671,179.938 31.5,181.5C 29.7708,180.883 28.2708,179.883 27,178.5C 25.0511,174.371 23.8844,170.037 23.5,165.5 Z"/></g>
<g><path style="opacity:0.208" fill="#d8dede" d="M 10.5,175.5 C 12.6744,178.515 14.3411,181.849 15.5,185.5C 12.7933,182.753 11.1266,179.42 10.5,175.5 Z"/></g>
<g><path style="opacity:1" fill="#e26f2c" d="M 102.5,174.5 C 102.833,174.5 103.167,174.5 103.5,174.5C 103.5,175.167 103.5,175.833 103.5,176.5C 102.699,178.042 102.366,179.708 102.5,181.5C 104.167,181.5 105.833,181.5 107.5,181.5C 106.4,182.605 105.733,183.938 105.5,185.5C 103.516,186.156 101.516,186.822 99.5,187.5C 98.2867,187.253 97.62,186.586 97.5,185.5C 98.9094,181.684 100.576,178.017 102.5,174.5 Z"/></g>
<g><path style="opacity:1" fill="#073640" d="M 168.5,143.5 C 165.48,145.523 163.146,148.19 161.5,151.5C 160.222,151.782 159.222,152.449 158.5,153.5C 152.224,158.107 146.557,163.441 141.5,169.5C 130.105,180.234 118.438,190.567 106.5,200.5C 99.89,202.049 93.5567,201.215 87.5,198C 85.8588,196.871 84.8588,195.371 84.5,193.5C 84.5858,192.504 84.2524,191.671 83.5,191C 86.0702,189.143 88.0702,186.809 89.5,184C 91.1134,183.911 92.2801,184.745 93,186.5C 92.6011,183.549 92.1011,180.549 91.5,177.5C 93.8421,177.504 95.8421,178.337 97.5,180C 95.1904,181.459 94.8571,183.292 96.5,185.5C 96.0847,187.948 97.0847,189.281 99.5,189.5C 101.871,188.653 103.871,187.32 105.5,185.5C 108.694,182.728 111.694,179.728 114.5,176.5C 114.5,175.833 114.833,175.5 115.5,175.5C 124.425,169.244 132.425,161.911 139.5,153.5C 142.381,152.475 145.047,150.975 147.5,149C 150,145.167 153.167,142 157,139.5C 157.483,138.552 157.649,137.552 157.5,136.5C 158.167,136.5 158.833,136.5 159.5,136.5C 160.601,137.598 161.934,137.765 163.5,137C 162.167,136 162.167,135 163.5,134C 165.96,132.368 168.293,132.368 170.5,134C 167.591,136.529 166.924,139.695 168.5,143.5 Z"/></g>
<g><path style="opacity:1" fill="#7a4f2d" d="M 114.5,176.5 C 111.694,179.728 108.694,182.728 105.5,185.5C 105.733,183.938 106.4,182.605 107.5,181.5C 109.55,179.453 111.883,177.786 114.5,176.5 Z"/></g>
<g><path style="opacity:0.345" fill="#dee2e3" d="M 33.5,182.5 C 34.9063,182.973 35.573,183.973 35.5,185.5C 34.0937,185.027 33.427,184.027 33.5,182.5 Z"/></g>
<g><path style="opacity:1" fill="#a2633d" d="M 96.5,185.5 C 96.8333,185.5 97.1667,185.5 97.5,185.5C 97.62,186.586 98.2867,187.253 99.5,187.5C 101.516,186.822 103.516,186.156 105.5,185.5C 103.871,187.32 101.871,188.653 99.5,189.5C 97.0847,189.281 96.0847,187.948 96.5,185.5 Z"/></g>
<g><path style="opacity:0.412" fill="#d5ddde" d="M 36.5,187.5 C 37.0431,187.56 37.3764,187.893 37.5,188.5C 36.0014,193.011 34.3348,197.344 32.5,201.5C 33.2286,196.649 34.5619,191.982 36.5,187.5 Z"/></g>
<g><path style="opacity:0.012" fill="#d3dbdd" d="M 16.5,187.5 C 18.9817,189.085 19.6484,191.085 18.5,193.5C 17.8333,191.5 17.1667,189.5 16.5,187.5 Z"/></g>
<g><path style="opacity:1" fill="#01d75e" d="M 189.5,194.5 C 189.714,196.144 189.38,197.644 188.5,199C 185.893,201.105 182.893,201.938 179.5,201.5C 179.719,202.675 179.386,203.675 178.5,204.5C 174.492,207.275 170.158,209.608 165.5,211.5C 155.249,213.918 145.249,216.585 135.5,219.5C 123.729,219.935 112.063,219.102 100.5,217C 99.5842,216.722 98.9175,216.222 98.5,215.5C 104.501,216.643 110.501,216.643 116.5,215.5C 118.227,210.273 121.727,206.939 127,205.5C 127.772,205.645 128.439,205.978 129,206.5C 131.01,202.996 134.01,200.996 138,200.5C 138.853,202.125 139.853,202.458 141,201.5C 141.219,202.938 141.719,204.271 142.5,205.5C 145.373,203.106 148.706,201.606 152.5,201C 151.5,200.167 150.5,199.333 149.5,198.5C 150.727,197.41 151.56,196.076 152,194.5C 152.561,195.022 153.228,195.355 154,195.5C 157.128,194.796 160.294,194.296 163.5,194C 166.397,192.263 169.397,190.763 172.5,189.5C 174.988,190.601 176.988,189.934 178.5,187.5C 182.198,186.606 185.865,185.606 189.5,184.5C 191.8,180.894 193.8,177.227 195.5,173.5C 200.743,177.424 200.077,180.424 193.5,182.5C 194.099,187.402 191.933,190.068 187,190.5C 186.51,191.793 186.343,193.127 186.5,194.5C 187.5,194.5 188.5,194.5 189.5,194.5 Z"/></g>
<g><path style="opacity:1" fill="#09a668" d="M 141.5,169.5 C 141.433,170.959 141.766,172.292 142.5,173.5C 140.417,174.029 138.583,175.029 137,176.5C 132.648,180.69 128.815,185.357 125.5,190.5C 120.726,191.602 117.059,194.269 114.5,198.5C 114.931,199.293 115.265,200.127 115.5,201C 112.271,206.99 107.271,209.324 100.5,208C 96.9608,207.578 94.6275,205.745 93.5,202.5C 97.5138,202.666 101.514,202.499 105.5,202C 106.056,201.617 106.389,201.117 106.5,200.5C 118.438,190.567 130.105,180.234 141.5,169.5 Z"/></g>
<g><path style="opacity:1" fill="#025239" d="M 83.5,184.5 C 83.0617,186.126 82.7284,187.793 82.5,189.5C 82.3402,191.355 83.0069,192.688 84.5,193.5C 84.8588,195.371 85.8588,196.871 87.5,198C 93.5567,201.215 99.89,202.049 106.5,200.5C 106.389,201.117 106.056,201.617 105.5,202C 101.514,202.499 97.5138,202.666 93.5,202.5C 92.0697,201.463 90.403,200.796 88.5,200.5C 82.9812,197.462 80.6479,192.796 81.5,186.5C 81.8333,185.5 82.5,184.833 83.5,184.5 Z"/></g>
<g><path style="opacity:1" fill="#06b36a" d="M 227.5,88.5 C 229.163,90.4927 230.33,92.8261 231,95.5C 234.922,112.985 235.589,130.652 233,148.5C 227.662,168.517 218.162,186.183 204.5,201.5C 199.56,205.316 194.56,209.149 189.5,213C 184.268,216.445 178.935,219.611 173.5,222.5C 168.299,224.567 162.966,226.233 157.5,227.5C 143.63,230.208 129.63,231.042 115.5,230C 109.523,229.339 103.856,227.672 98.5,225C 94.4517,224.696 90.4517,224.196 86.5,223.5C 86.5,222.5 86.5,221.5 86.5,220.5C 90.0774,220.855 93.0774,219.855 95.5,217.5C 96.3764,217.631 97.0431,217.298 97.5,216.5C 96.3984,215.824 95.3984,215.158 94.5,214.5C 95.8333,214.5 97.1667,214.5 98.5,214.5C 98.5,214.833 98.5,215.167 98.5,215.5C 98.9175,216.222 99.5842,216.722 100.5,217C 112.063,219.102 123.729,219.935 135.5,219.5C 149.617,219.958 162.617,216.458 174.5,209C 175.899,208.405 177.232,208.572 178.5,209.5C 181.054,207.979 183.721,206.646 186.5,205.5C 185.674,204.549 185.508,203.549 186,202.5C 190.984,198.57 195.484,194.07 199.5,189C 204.703,186.887 207.703,183.053 208.5,177.5C 210.39,177.703 211.89,177.037 213,175.5C 214.064,171.297 216.064,167.63 219,164.5C 221.337,168.82 220.17,171.487 215.5,172.5C 215.67,173.822 215.337,174.989 214.5,176C 216.198,175.503 217.865,175.67 219.5,176.5C 220.243,175.092 221.077,173.759 222,172.5C 221.747,169.867 221.747,167.2 222,164.5C 222.667,165.833 223.333,167.167 224,168.5C 226.585,164.508 228.418,160.175 229.5,155.5C 228.067,153.664 227.567,151.664 228,149.5C 229,150.833 230,150.833 231,149.5C 233.155,137.249 233.821,124.916 233,112.5C 232.198,108.021 230.865,103.687 229,99.5C 226.881,102.477 225.714,102.144 225.5,98.5C 227.019,95.3993 227.685,92.066 227.5,88.5 Z"/></g>
<g><path style="opacity:1" fill="#31d272" d="M 50.5,183.5 C 51.9988,188.829 51.3321,193.996 48.5,199C 49.6748,201.491 49.6748,203.991 48.5,206.5C 53.7041,205.355 59.0375,204.689 64.5,204.5C 57.8987,206.363 51.232,208.363 44.5,210.5C 44.1667,210 43.8333,209.5 43.5,209C 45.9383,200.52 48.2717,192.02 50.5,183.5 Z"/></g>
<g><path style="opacity:0.029" fill="#e7edee" d="M 31.5,204.5 C 30.8062,209.915 29.1395,214.915 26.5,219.5C 26.9628,216.779 27.6295,214.112 28.5,211.5C 29.3228,209.013 30.3228,206.679 31.5,204.5 Z"/></g>
<g><path style="opacity:1" fill="#19d365" d="M 81.5,186.5 C 80.6479,192.796 82.9812,197.462 88.5,200.5C 89.4831,201.85 90.8164,202.85 92.5,203.5C 93.2458,204.736 93.5792,206.07 93.5,207.5C 91.8967,207.312 90.5634,207.812 89.5,209C 92.1926,211.565 95.1926,213.398 98.5,214.5C 97.1667,214.5 95.8333,214.5 94.5,214.5C 87.2886,211.896 80.2886,208.729 73.5,205C 70.854,204.503 68.1873,204.336 65.5,204.5C 67.0478,203.206 69.0478,202.539 71.5,202.5C 74.2063,202.952 76.7063,202.952 79,202.5C 79.5396,200.865 79.0396,199.532 77.5,198.5C 79.164,195.103 79.9973,191.436 80,187.5C 80.3826,186.944 80.8826,186.611 81.5,186.5 Z"/></g>
<g><path style="opacity:1" fill="#1c404a" d="M 7.5,142.5 C 8.24223,144.594 8.9089,146.761 9.5,149C 6.72027,153.89 6.88693,158.724 10,163.5C 11.6665,162.66 11.8331,163.16 10.5,165C 12.0709,174.329 15.7375,182.662 21.5,190C 20.9085,196.374 19.2418,202.374 16.5,208C 17.2893,211.097 18.456,211.264 20,208.5C 19.9068,212.826 19.9068,217.159 20,221.5C 20.9525,223.592 22.2859,223.925 24,222.5C 24.9358,218.886 25.4358,215.22 25.5,211.5C 26.5,211.5 27.5,211.5 28.5,211.5C 27.6295,214.112 26.9628,216.779 26.5,219.5C 25.2318,221.905 24.5651,224.572 24.5,227.5C 23.218,228.708 23.218,230.042 24.5,231.5C 29.991,229.402 35.6576,228.069 41.5,227.5C 38.1595,231.058 34.1595,232.391 29.5,231.5C 29.7852,233.288 29.4519,234.955 28.5,236.5C 24.0649,236.882 19.7316,238.382 15.5,241C 14,243.167 14.5,244.667 17,245.5C 17.9454,245.095 18.6121,244.428 19,243.5C 22.6027,244.135 26.1027,244.802 29.5,245.5C 21.9587,246.927 14.4587,248.593 7,250.5C 5.35659,249.685 3.85659,248.685 2.5,247.5C 3.05027,241.545 4.3836,235.878 6.5,230.5C 8.07394,228.898 8.74061,226.898 8.5,224.5C 11.0633,213.813 14.3966,203.48 18.5,193.5C 19.6484,191.085 18.9817,189.085 16.5,187.5C 15.6618,187.158 15.3284,186.492 15.5,185.5C 14.3411,181.849 12.6744,178.515 10.5,175.5C 10.3404,173.847 9.67373,172.514 8.5,171.5C 7.59603,170.791 7.26269,169.791 7.5,168.5C 7.40505,166.214 6.73838,164.214 5.5,162.5C 0.566058,145.578 -0.767276,128.244 1.5,110.5C 2.22158,110.082 2.72158,109.416 3,108.5C 2.97886,112.009 3.81219,115.175 5.5,118C 5.16799,124.306 4.83466,130.472 4.5,136.5C 4.91373,138.919 5.91373,140.919 7.5,142.5 Z"/></g>
<g><path style="opacity:0.678" fill="#e4f5ee" d="M 44.5,176.5 C 46.7267,178.607 48.7267,180.94 50.5,183.5C 48.2717,192.02 45.9383,200.52 43.5,209C 43.8333,209.5 44.1667,210 44.5,210.5C 51.232,208.363 57.8987,206.363 64.5,204.5C 64.8333,204.5 65.1667,204.5 65.5,204.5C 68.1873,204.336 70.854,204.503 73.5,205C 80.2886,208.729 87.2886,211.896 94.5,214.5C 95.3984,215.158 96.3984,215.824 97.5,216.5C 97.0431,217.298 96.3764,217.631 95.5,217.5C 92.0611,217.788 88.7278,218.454 85.5,219.5C 83.7868,218.365 83.1201,216.698 83.5,214.5C 80.4816,214.335 77.4816,214.502 74.5,215C 67.9668,217.134 61.3001,218.634 54.5,219.5C 63.6158,216.55 72.9491,213.883 82.5,211.5C 78.7737,208.97 74.7737,206.97 70.5,205.5C 60.5518,208.154 50.5518,210.487 40.5,212.5C 42.9505,203.143 45.6171,193.81 48.5,184.5C 47.1582,181.816 45.8249,179.15 44.5,176.5 Z"/></g>
<g><path style="opacity:1" fill="#45b688" d="M 95.5,217.5 C 93.0774,219.855 90.0774,220.855 86.5,220.5C 86.5,221.5 86.5,222.5 86.5,223.5C 84.1016,223.741 82.1016,223.074 80.5,221.5C 82.5529,221.598 84.2196,220.931 85.5,219.5C 88.7278,218.454 92.0611,217.788 95.5,217.5 Z"/></g>
<g><path style="opacity:1" fill="#03493f" d="M 204.5,201.5 C 201.553,205.076 198.387,208.409 195,211.5C 194.784,213.384 194.117,215.051 193,216.5C 191.951,215.483 190.784,215.316 189.5,216C 186.248,217.566 183.248,219.399 180.5,221.5C 178.236,222.219 175.903,222.552 173.5,222.5C 178.935,219.611 184.268,216.445 189.5,213C 194.56,209.149 199.56,205.316 204.5,201.5 Z"/></g>
<g><path style="opacity:0.043" fill="#d9e1e2" d="M 26.5,219.5 C 26.7062,222.495 26.0395,225.162 24.5,227.5C 24.5651,224.572 25.2318,221.905 26.5,219.5 Z"/></g>
<g><path style="opacity:1" fill="#043440" d="M 66.5,222.5 C 66.8333,222.5 67.1667,222.5 67.5,222.5C 71.3482,222.689 75.0149,222.689 78.5,222.5C 81.3584,223.661 84.025,224.994 86.5,226.5C 86.7214,227.735 87.3881,228.735 88.5,229.5C 87.0672,231.122 85.4005,232.455 83.5,233.5C 83.8333,234.167 84.1667,234.833 84.5,235.5C 82.7086,236.17 81.0419,236.837 79.5,237.5C 77.7334,236.744 75.9001,236.077 74,235.5C 59.0862,238.649 44.2529,241.982 29.5,245.5C 26.1027,244.802 22.6027,244.135 19,243.5C 18.6121,244.428 17.9454,245.095 17,245.5C 14.5,244.667 14,243.167 15.5,241C 19.7316,238.382 24.0649,236.882 28.5,236.5C 29.4519,234.955 29.7852,233.288 29.5,231.5C 34.1595,232.391 38.1595,231.058 41.5,227.5C 46.2919,227.651 50.9585,226.984 55.5,225.5C 59.7799,226.74 63.4466,225.74 66.5,222.5 Z"/></g>
<g><path style="opacity:1" fill="#c9efe8" d="M 85.5,219.5 C 84.2196,220.931 82.5529,221.598 80.5,221.5C 79.6009,220.528 78.4343,219.862 77,219.5C 73.6303,220.236 70.4636,221.236 67.5,222.5C 67.1667,222.5 66.8333,222.5 66.5,222.5C 57.8952,223.407 49.5619,225.074 41.5,227.5C 35.6576,228.069 29.991,229.402 24.5,231.5C 23.218,230.042 23.218,228.708 24.5,227.5C 30.4107,226.483 36.4107,224.65 42.5,222C 46.4528,220.852 50.4528,220.018 54.5,219.5C 61.3001,218.634 67.9668,217.134 74.5,215C 77.4816,214.502 80.4816,214.335 83.5,214.5C 83.1201,216.698 83.7868,218.365 85.5,219.5 Z"/></g>
<g><path style="opacity:1" fill="#2b5b5e" d="M 66.5,222.5 C 63.4466,225.74 59.7799,226.74 55.5,225.5C 50.9585,226.984 46.2919,227.651 41.5,227.5C 49.5619,225.074 57.8952,223.407 66.5,222.5 Z"/></g>
<g><path style="opacity:1" fill="#063441" d="M 193.5,228.5 C 162.814,245.922 130.148,250.755 95.5,243C 90.0455,241.435 84.7122,239.602 79.5,237.5C 81.0419,236.837 82.7086,236.17 84.5,235.5C 84.1667,234.833 83.8333,234.167 83.5,233.5C 85.4005,232.455 87.0672,231.122 88.5,229.5C 87.3881,228.735 86.7214,227.735 86.5,226.5C 91.5673,228.728 96.734,230.728 102,232.5C 104.381,231.565 106.881,231.232 109.5,231.5C 109.833,231.5 110.167,231.5 110.5,231.5C 111.568,232.434 112.901,232.768 114.5,232.5C 122.984,234.599 131.65,234.932 140.5,233.5C 141.478,233.977 142.311,234.643 143,235.5C 143.308,234.692 143.808,234.025 144.5,233.5C 146.098,234.485 147.765,234.651 149.5,234C 156.732,231.085 164.066,228.419 171.5,226C 172.823,225.184 173.489,224.017 173.5,222.5C 175.903,222.552 178.236,222.219 180.5,221.5C 184.086,221.456 186.419,223.123 187.5,226.5C 191.046,225.281 194.046,223.281 196.5,220.5C 197.583,221.365 197.749,222.365 197,223.5C 195.351,224.885 194.184,226.551 193.5,228.5 Z"/></g>
<g><path style="opacity:1" fill="#046249" d="M 90.5,225.5 C 94.4311,226.389 98.0977,227.722 101.5,229.5C 97.2924,229.323 93.6257,227.99 90.5,225.5 Z"/></g>
<g><path style="opacity:0.933" fill="#8a9a9d" d="M 8.5,224.5 C 8.74061,226.898 8.07394,228.898 6.5,230.5C 6.59495,228.214 7.26162,226.214 8.5,224.5 Z"/></g>
<g><path style="opacity:1" fill="#11a771" d="M 86.5,223.5 C 90.4517,224.196 94.4517,224.696 98.5,225C 103.856,227.672 109.523,229.339 115.5,230C 129.63,231.042 143.63,230.208 157.5,227.5C 156.167,228.167 154.833,228.833 153.5,229.5C 139.234,231.24 124.9,231.907 110.5,231.5C 110.167,231.5 109.833,231.5 109.5,231.5C 107.095,230.232 104.428,229.565 101.5,229.5C 98.0977,227.722 94.4311,226.389 90.5,225.5C 88.6203,225.771 87.287,225.104 86.5,223.5 Z"/></g>
<g><path style="opacity:1" fill="#0c4241" d="M 80.5,221.5 C 82.1016,223.074 84.1016,223.741 86.5,223.5C 87.287,225.104 88.6203,225.771 90.5,225.5C 93.6257,227.99 97.2924,229.323 101.5,229.5C 104.428,229.565 107.095,230.232 109.5,231.5C 106.881,231.232 104.381,231.565 102,232.5C 96.734,230.728 91.5673,228.728 86.5,226.5C 84.025,224.994 81.3584,223.661 78.5,222.5C 75.0149,222.689 71.3482,222.689 67.5,222.5C 70.4636,221.236 73.6303,220.236 77,219.5C 78.4343,219.862 79.6009,220.528 80.5,221.5 Z"/></g>
<g><path style="opacity:1" fill="#07674e" d="M 153.5,229.5 C 150.466,231.018 147.133,231.851 143.5,232C 133.839,232.5 124.172,232.666 114.5,232.5C 112.901,232.768 111.568,232.434 110.5,231.5C 124.9,231.907 139.234,231.24 153.5,229.5 Z"/></g>
<g><path style="opacity:1" fill="#023c3b" d="M 173.5,222.5 C 173.489,224.017 172.823,225.184 171.5,226C 164.066,228.419 156.732,231.085 149.5,234C 147.765,234.651 146.098,234.485 144.5,233.5C 143.808,234.025 143.308,234.692 143,235.5C 142.311,234.643 141.478,233.977 140.5,233.5C 131.65,234.932 122.984,234.599 114.5,232.5C 124.172,232.666 133.839,232.5 143.5,232C 147.133,231.851 150.466,231.018 153.5,229.5C 154.833,228.833 156.167,228.167 157.5,227.5C 162.966,226.233 168.299,224.567 173.5,222.5 Z"/></g>
<g><path style="opacity:0.008" fill="#d0d7d8" d="M 244.5,164.5 C 229.382,209.113 198.715,236.28 152.5,246C 125.493,250.853 99.3268,248.02 74,237.5C 52.1003,242.642 30.1003,247.308 8,251.5C 4.86653,251.858 3.03319,250.525 2.5,247.5C 3.85659,248.685 5.35659,249.685 7,250.5C 14.4587,248.593 21.9587,246.927 29.5,245.5C 44.2529,241.982 59.0862,238.649 74,235.5C 75.9001,236.077 77.7334,236.744 79.5,237.5C 84.7122,239.602 90.0455,241.435 95.5,243C 130.148,250.755 162.814,245.922 193.5,228.5C 217.647,212.878 234.647,191.545 244.5,164.5 Z"/></g>
</svg>
